<svg width="350" height="150" viewBox="0 0 350 150" fill="none" xmlns="http://www.w3.org/2000/svg">
<g clip-path="url(#clip0_1003_4)">
<rect width="350" height="150" rx="10" fill="url(#paint0_linear_1003_4)"/>
<path d="M194.28 72.0352C186.83 86.4352 188.016 104.426 195.523 118.782C203.03 133.139 216.273 143.992 231.067 150.602C245.861 157.211 262.171 159.837 278.357 160.518C287.957 160.917 297.605 160.653 307.085 159.112C317.937 157.341 328.781 153.75 337.243 146.728C343.142 141.832 347.649 135.477 351.605 128.915C360.446 114.242 366.835 98.2432 373.205 82.3264C376.334 74.4832 379.483 66.5872 381.259 58.3264C384.619 42.6208 382.776 25.6864 375.23 11.5024C367.685 -2.68159 354.288 -13.8512 338.76 -17.9024C328.473 -20.5808 317.539 -20.168 307.181 -17.7728C300.136 -16.1451 293.327 -13.6255 286.92 -10.2752C271.305 -2.11519 259.008 10.9312 245.592 21.9856C239.697 26.848 235.123 33.2848 229.118 38.2048C223.041 43.192 216.605 47.7328 210.619 52.8304C204.173 58.3072 198.173 64.48 194.28 72.0352Z" fill="black"/>
<path d="M334.32 43.5134H381.461" stroke="#141518" stroke-width="0.48" stroke-linecap="round" stroke-linejoin="round"/>
<path d="M295.584 -22.9233V15.2751" stroke="#141518" stroke-width="0.48" stroke-linecap="round" stroke-linejoin="round"/>
<path d="M228.37 43.5134H200.055" stroke="#141518" stroke-width="0.48" stroke-linecap="round" stroke-linejoin="round"/>
<path d="M335.823 23.5551L353.914 5.46387" stroke="#141518" stroke-width="0.48" stroke-linecap="round" stroke-linejoin="round"/>
<path d="M346.517 5.91519L355.56 -3.13281" stroke="#141518" stroke-width="0.48" stroke-linecap="round" stroke-linejoin="round"/>
<path d="M187.167 106.187L205.258 88.0911" stroke="#141518" stroke-width="0.48" stroke-linecap="round" stroke-linejoin="round"/>
<path d="M197.856 88.5424L206.904 79.4944" stroke="#141518" stroke-width="0.48" stroke-linecap="round" stroke-linejoin="round"/>
<path d="M337.469 14.9582L343.229 9.19824" stroke="#141518" stroke-width="0.48" stroke-linecap="round" stroke-linejoin="round"/>
<path d="M311.021 -3.14233L312.168 0.563263C312.234 0.8006 312.35 1.02109 312.508 1.20987C312.666 1.39866 312.863 1.55135 313.085 1.65767L316.2 3.04006L313.104 4.40806C312.882 4.51489 312.686 4.66775 312.528 4.85646C312.37 5.04516 312.254 5.26539 312.187 5.50246L311.04 9.20806L309.893 5.50246C309.827 5.2657 309.712 5.04563 309.555 4.85691C309.398 4.66819 309.202 4.51518 308.981 4.40806L305.861 3.04006L308.962 1.66726C309.183 1.56093 309.379 1.40816 309.537 1.21933C309.694 1.0305 309.809 0.810021 309.874 0.572865L311.021 -3.14233Z" fill="white"/>
<path d="M325.718 13.0144L326.827 16.4944C326.892 16.7187 327.005 16.9265 327.157 17.1037C327.31 17.2808 327.498 17.4233 327.71 17.5216L330.71 18.808L327.72 20.0992C327.507 20.1969 327.319 20.3393 327.166 20.5165C327.014 20.6938 326.901 20.9018 326.837 21.1264L325.728 24.6064L324.619 21.1264C324.553 20.9015 324.44 20.6933 324.287 20.5161C324.134 20.3388 323.944 20.1966 323.731 20.0992L320.736 18.808L323.731 17.5216C323.944 17.4234 324.133 17.2809 324.286 17.1038C324.439 16.9267 324.553 16.7189 324.619 16.4944L325.718 13.0144Z" fill="white"/>
<path opacity="0.7" d="M332.477 -1.80786L332.842 -0.660662C332.864 -0.586502 332.901 -0.517838 332.952 -0.459125C333.002 -0.400412 333.065 -0.352963 333.135 -0.319862L334.123 0.102537L333.135 0.529736C333.065 0.562837 333.002 0.610286 332.952 0.668999C332.901 0.727712 332.864 0.79638 332.842 0.87054L332.477 2.01774L332.112 0.87054C332.091 0.795976 332.054 0.72691 332.003 0.668084C331.953 0.609257 331.89 0.56206 331.819 0.529736L330.831 0.102537L331.819 -0.319862C331.89 -0.352186 331.953 -0.399379 332.003 -0.458206C332.054 -0.517032 332.091 -0.586098 332.112 -0.660662L332.477 -1.80786Z" fill="white"/>
<path d="M337.469 89.9775L338.577 93.4575C338.643 93.6825 338.756 93.8906 338.909 94.0679C339.063 94.2451 339.252 94.3873 339.465 94.4847L342.461 95.7759L339.465 97.0623C339.253 97.1606 339.064 97.303 338.911 97.4801C338.757 97.6573 338.644 97.865 338.577 98.0895L337.469 101.57L336.36 98.0799C336.294 97.856 336.181 97.6487 336.028 97.4716C335.876 97.2945 335.688 97.1518 335.477 97.0527L332.477 95.7663L335.477 94.4751C335.688 94.3766 335.877 94.234 336.029 94.0569C336.181 93.8798 336.294 93.6721 336.36 93.4479L337.469 89.9775Z" fill="white"/>
<path d="M283.08 2.01758L283.915 4.92638C283.961 5.10807 284.043 5.27829 284.158 5.42622C284.273 5.57415 284.417 5.69653 284.582 5.78558L286.833 6.86558L284.582 7.94078C284.417 8.02982 284.273 8.1522 284.158 8.30013C284.043 8.44806 283.961 8.61829 283.915 8.79998L283.08 11.7088L282.249 8.79998C282.204 8.61829 282.121 8.44806 282.006 8.30013C281.891 8.1522 281.747 8.02982 281.582 7.94078L279.331 6.87998L281.582 5.79998C281.747 5.71093 281.891 5.58855 282.006 5.44062C282.121 5.29269 282.204 5.12247 282.249 4.94078L283.08 2.01758Z" fill="white"/>
<path d="M251.635 100.48C251.635 100.48 243.345 90.3086 242.76 86.939L236.366 90.299L213.062 90.1166C211.889 88.1306 210.817 86.0864 209.851 83.9918C208.929 81.7598 208.55 77.8814 213.777 76.8302C213.777 76.8302 216.854 71.3294 217.963 66.923C219.072 62.5166 217.368 57.6062 219.005 54.3374C220.641 51.0686 221.328 50.1998 224.078 48.5774C226.829 46.955 232.824 42.8174 235.536 41.1086C238.346 39.3164 241.389 37.9193 244.579 36.9566C247.555 36.1262 270.61 23.5166 270.61 23.5166L271.646 25.2302L271.469 23.5166L274.786 25.7726C274.786 25.7726 277.248 26.1998 281.904 24.5486C286.56 22.8974 295.915 17.5598 302.179 20.411C308.443 23.2622 317.841 33.203 320.693 36.1598C323.544 39.1166 329.582 45.1886 331.08 49.667C332.578 54.1454 335.726 56.8238 337.32 58.5902C338.913 60.3566 346.521 66.3806 341.371 74.0654C336.221 81.7502 316.987 75.8318 316.987 75.8318C316.987 75.8318 317.861 71.2862 319.694 68.3294C318.777 66.3194 317.612 64.4314 316.229 62.7086C313.91 59.8286 305.899 50.7662 301.301 48.6062C296.702 46.4462 278.419 89.1326 278.419 89.1326L274.694 87.7646L274.061 93.5246C274.061 93.5246 255.01 98.1086 251.635 100.48Z" fill="#229FFC"/>
<path opacity="0.2" d="M297.062 31.1294C302.683 30.4478 308.347 33.0494 312.423 36.9614C316.498 40.8734 319.176 46.0478 321.298 51.299C322.81 55.0517 324.074 58.9 325.08 62.819C328.781 61.787 333.216 61.499 336.936 62.4398C334.373 63.155 331.752 63.3422 328.819 64.5038C331.656 64.5278 334.541 64.9406 337.075 66.2174C339.61 67.4942 341.751 69.731 342.442 72.4814C342.504 72.7454 342.413 73.1582 342.154 73.0766L338.477 78.2462L316.992 77.387C316.992 77.387 316.349 73.547 319.699 68.3918C318.094 65.0846 315.999 62.039 313.483 59.3582C309.115 54.5822 302.174 49.4606 302.174 49.4606L297.062 31.1294Z" fill="black"/>
<path opacity="0.2" d="M211.118 86.9393C211.118 86.9393 207.278 79.6481 216.576 77.3873C216.576 77.3873 219.283 75.1745 220.128 72.1073C220.973 69.0401 221.088 52.1825 233.568 49.9505C246.048 47.7185 252.034 45.0593 255.077 36.7505C258.12 28.4417 275.933 35.2001 275.933 35.2001L283.757 75.5585L274.061 93.5489L251.635 100.48C251.635 100.48 242.995 89.3969 240.777 82.3553C238.56 75.3137 222.331 87.4673 222.331 87.4673L214.209 90.9473L211.118 86.9393Z" fill="black"/>
<path d="M310.286 91.3598L304.459 91.0959L302.76 87.1262L301.968 87.9279L300.619 82.4126C300.619 82.4126 308.39 80.387 314.006 76.3646C320.702 72.5246 332.573 67.139 340.781 71.9246C340.781 71.9246 340.555 75.2559 340.301 77.3295C340.046 79.4031 339.365 82.6094 333.408 85.8062L312.931 90.275" fill="white"/>
<path d="M260.616 9.99506L252.864 3.80786L244.123 11.6319L233.563 17.6367L236.217 29.7423C236.217 29.7423 242.006 36.8847 244.579 39.7071C247.152 42.5295 246.806 42.7119 250.017 44.0271C253.229 45.3423 260.837 45.8559 260.837 45.8559C262.18 45.4017 263.468 44.7979 264.677 44.0559C266.673 42.8319 267.24 38.9103 267.24 38.9103L270.24 36.2223L270.653 31.3983C271.48 29.2477 271.791 26.9326 271.56 24.6399L267.168 18.7119C267.168 18.7119 268.608 18.8223 269.045 17.6319C269.481 16.4415 269.774 13.5039 269.774 13.5039C269.774 13.5039 269.822 12.0639 267.701 9.14546C265.579 6.22706 265.397 5.19026 262.665 5.90546C259.934 6.62066 260.616 9.99506 260.616 9.99506Z" fill="white"/>
<path d="M274.061 84.904C273.494 83.7856 267.557 76.024 265.421 74.2288C265.421 74.2288 253.762 69.352 251.189 70.0576L243.658 72.3424C243.658 72.3424 234.758 74.968 232.618 76.0864C230.477 77.2048 226.915 78.0736 222.888 79.0192C218.861 79.9648 214.032 80.5792 213.322 83.9296C212.611 87.28 212.131 92.656 213.173 96.0976C213.173 96.0976 213.13 99.5296 213.72 100.461C214.31 101.392 219 101.848 223.214 99.7648C227.429 97.6816 232.718 94.2928 236.362 90.3232L246.067 85.8784L252.23 90.928L255.739 91.6384L258.859 89.536L261 90.928H262.853L263.362 88.288L258.859 82.5904L268.133 88.288L269.99 86.9392L269.39 83.4832L272.75 86.9392C272.75 86.9392 274.627 86.0272 274.061 84.904ZM262.747 78.5008L265.19 79.1968L267.643 82.2256L262.747 78.5008Z" fill="white"/>
<path d="M257.669 28.4318C258.269 29.1998 258.446 30.0734 258.058 30.3518C257.669 30.6302 256.872 30.275 256.267 29.5022C255.663 28.7294 255.49 27.8606 255.879 27.5822C256.267 27.3038 257.064 27.659 257.669 28.4318Z" fill="#141518"/>
<path d="M247.603 34.1247C248.203 34.8975 248.381 35.7663 247.992 36.0687C247.603 36.3711 246.806 35.9871 246.201 35.2143C245.597 34.4415 245.424 33.5727 245.813 33.2703C246.201 32.9679 246.998 33.3519 247.603 34.1247Z" fill="#141518"/>
<path d="M260.616 37.9791C260.616 37.9791 263.016 36.3855 262.056 32.4111" stroke="#141518" stroke-width="0.48" stroke-linecap="round" stroke-linejoin="round"/>
<path d="M252.504 26.123C252.997 25.1905 253.737 24.4113 254.642 23.8704C255.548 23.3295 256.585 23.0478 257.64 23.0558" stroke="#141518" stroke-width="0.96" stroke-linecap="round" stroke-linejoin="round"/>
<path d="M246.394 30.3184C245.538 30.6449 244.766 31.1595 244.135 31.8241C243.505 32.4887 243.032 33.2864 242.75 34.1584" stroke="#141518" stroke-width="0.96" stroke-linecap="round" stroke-linejoin="round"/>
<path d="M248.52 31.8831C250.811 33.4365 252.56 35.6668 253.522 38.2623C254.645 38.6175 255.82 38.7798 256.997 38.7423L257.256 35.7423" stroke="#141518" stroke-width="0.48" stroke-linecap="round" stroke-linejoin="round"/>
<path d="M231.446 18.8079C231.446 18.8079 231.446 23.6079 233.904 26.7471C236.179 29.6751 240.873 35.0415 241.555 35.8239C241.61 35.8845 241.662 35.9486 241.709 36.0159C242.256 36.7695 245.813 41.5983 247.824 43.1055C249.624 44.4543 257.697 45.5055 260.491 45.8175C261.106 45.8877 261.727 45.7581 262.262 45.4479L264.662 44.0367C265.239 43.7006 265.679 43.1721 265.905 42.5439L268.401 35.6799C268.515 35.3725 268.574 35.0475 268.574 34.7199V30.5487C268.575 30.2024 268.511 29.859 268.387 29.5359L265.387 21.6543" stroke="#141518" stroke-width="0.48" stroke-linecap="round" stroke-linejoin="round"/>
<path d="M267.24 18.8079C267.24 18.8079 268.157 20.9583 271.56 24.6495" stroke="#141518" stroke-width="0.48" stroke-linecap="round" stroke-linejoin="round"/>
<path d="M301.733 82.1344C301.733 82.1344 308.194 79.888 312.739 77.08C317.285 74.272 332.127 67.0576 341.059 71.7328L340.901 72.5824C340.634 74.087 340.52 75.6148 340.56 77.1424C340.613 79.8736 339.379 82.2256 333.663 85.6192C326.52 86.512 310.579 91.192 310.579 91.192" stroke="#141518" stroke-width="0.48" stroke-linecap="round" stroke-linejoin="round"/>
<path d="M246.231 86.2288C244.085 86.6224 240.855 89.2192 239.803 91.1344C238.752 93.0496 238.133 95.176 237.077 97.0864C235.804 99.3723 233.943 101.276 231.687 102.602C228.749 104.32 225.178 105.035 222.725 107.402C221.481 108.658 220.541 110.184 219.979 111.861C218.529 115.869 218.654 120.279 220.329 124.199C222.004 128.12 225.104 131.258 229.003 132.981" stroke="#141518" stroke-width="0.96" stroke-linecap="round" stroke-linejoin="round"/>
<path d="M247.589 71.3679C247.589 71.3679 235.934 73.9839 231.446 76.7151C226.958 79.4463 214.81 78.4911 213.168 84.3567C211.526 90.2223 213.168 96.0975 213.168 96.0975C213.168 96.0975 212.76 99.5199 213.715 100.48C214.67 101.44 224.501 102.942 235.829 90.6591C235.829 90.6591 242.52 86.5935 245.933 86.3055" stroke="#141518" stroke-width="0.48" stroke-linecap="round" stroke-linejoin="round"/>
<path d="M245.933 72.7503C245.933 72.7503 249.057 69.3471 252.465 70.1967C255.873 71.0463 263.822 73.0767 265.425 74.2287C267.029 75.3807 273.859 83.5407 274.065 84.9039C274.272 86.2671 272.765 86.9391 272.765 86.9391L265.19 79.1967L260.621 77.7567" stroke="#141518" stroke-width="0.48" stroke-linecap="round" stroke-linejoin="round"/>
<path d="M262.114 78.2224L269.386 83.5024L269.986 86.9536L268.128 88.3024C268.128 88.3024 260.582 83.272 257.741 82.0624" stroke="#141518" stroke-width="0.48" stroke-linecap="round" stroke-linejoin="round"/>
<path d="M258.125 82.2256L263.357 88.288L262.848 90.928H260.995L252.226 85.2256" stroke="#141518" stroke-width="0.48" stroke-linecap="round" stroke-linejoin="round"/>
<path d="M239.4 83.2527C239.942 84.7983 242.712 85.0191 244.939 85.4271C247.166 85.8351 252.235 90.9279 252.235 90.9279L255.749 91.6383L258.864 89.5359" stroke="#141518" stroke-width="0.48" stroke-linecap="round" stroke-linejoin="round"/>
<path d="M244.569 72.1023C244.569 72.1023 242.045 60.8943 236.985 54.6975" stroke="#141518" stroke-width="0.48" stroke-linecap="round" stroke-linejoin="round"/>
<path d="M245.933 71.4831C245.933 71.4831 248.496 65.8335 244.57 57.8127" stroke="#141518" stroke-width="0.48" stroke-linecap="round" stroke-linejoin="round"/>
<path d="M242.76 37.408C237.518 38.752 230.76 45.1744 223.08 49.1488C217.401 52.0816 218.577 59.2528 218.28 64.648C217.982 70.0432 213.773 76.8544 213.773 76.8544C213.773 76.8544 209.971 77.6992 209.409 80.752C208.848 83.8048 212.457 89.2432 212.457 89.2432" stroke="#141518" stroke-width="0.48" stroke-linecap="round" stroke-linejoin="round"/>
<path d="M242.76 87.448C242.76 87.448 247.728 97.7296 251.645 100.053" stroke="#141518" stroke-width="0.48" stroke-linecap="round" stroke-linejoin="round"/>
<path d="M230.016 77.3871C230.016 77.3871 224.222 74.7519 218.976 75.8031" stroke="#141518" stroke-width="0.48" stroke-linecap="round" stroke-linejoin="round"/>
<path d="M231.446 76.7151C229.891 74.9487 224.52 73.5999 224.52 73.5999" stroke="#141518" stroke-width="0.48" stroke-linecap="round" stroke-linejoin="round"/>
<path d="M315.845 31.7439C315.845 31.7439 328.325 42.1215 331.685 51.1935C334.32 58.3263 348.85 64.9935 340.829 74.7999" stroke="#141518" stroke-width="0.48" stroke-linecap="round" stroke-linejoin="round"/>
<path d="M316.987 74.8C317.282 72.7793 317.995 70.8421 319.08 69.112C320.952 65.9296 330.562 65.272 335.837 66.9472" stroke="#141518" stroke-width="0.48" stroke-linecap="round" stroke-linejoin="round"/>
<path d="M266.453 50.3152C266.453 50.581 266.374 50.8409 266.226 51.0619C266.078 51.2829 265.869 51.4552 265.623 51.5569C265.377 51.6586 265.107 51.6852 264.846 51.6334C264.586 51.5815 264.346 51.4535 264.158 51.2655C263.97 51.0776 263.842 50.8381 263.79 50.5774C263.739 50.3167 263.765 50.0464 263.867 49.8009C263.969 49.5553 264.141 49.3454 264.362 49.1977C264.583 49.05 264.843 48.9712 265.109 48.9712C265.465 48.9712 265.807 49.1128 266.059 49.3648C266.311 49.6169 266.453 49.9587 266.453 50.3152Z" fill="#141518"/>
<path d="M267.797 58.5999C267.797 58.8657 267.718 59.1255 267.57 59.3466C267.423 59.5676 267.213 59.7398 266.967 59.8416C266.722 59.9433 266.451 59.9699 266.191 59.918C265.93 59.8662 265.69 59.7382 265.503 59.5502C265.315 59.3623 265.187 59.1228 265.135 58.8621C265.083 58.6014 265.109 58.3311 265.211 58.0855C265.313 57.8399 265.485 57.63 265.706 57.4824C265.927 57.3347 266.187 57.2559 266.453 57.2559C266.809 57.2559 267.151 57.3975 267.403 57.6495C267.655 57.9016 267.797 58.2434 267.797 58.5999Z" fill="#141518"/>
<path d="M261.067 14.8384L260.827 8.99195C260.804 8.49448 260.928 8.0012 261.184 7.57415C261.44 7.14711 261.817 6.80538 262.267 6.59195L263.227 6.14555C263.787 5.88266 264.425 5.83522 265.018 6.01227C265.611 6.18932 266.118 6.57849 266.443 7.10555L269.405 11.9343C269.69 12.4035 269.816 12.9524 269.765 13.4991L269.472 16.4415C269.413 17.0305 269.149 17.58 268.726 17.9941C268.303 18.4082 267.748 18.6606 267.158 18.7071L266.069 18.7936" stroke="#141518" stroke-width="0.48" stroke-linecap="round" stroke-linejoin="round"/>
<path d="M270.653 30.3184C272.165 27.8128 271.459 23.5552 271.459 23.5552L275.232 26.1232C275.232 26.1232 275.611 27.2848 275.232 29.8192" stroke="#141518" stroke-width="0.48" stroke-linecap="round" stroke-linejoin="round"/>
<path d="M275.534 26.08C279.472 25.4348 283.32 24.3246 286.997 22.7728C292.632 20.3728 296.923 17.7232 302.957 20.8528C306.216 22.5376 309.019 24.976 312.153 26.8576" stroke="#141518" stroke-width="0.48" stroke-linecap="round" stroke-linejoin="round"/>
<path d="M245.664 21.9327C245.664 21.9327 233.885 21.0975 229.858 17.2143C225.83 13.3311 226.046 1.97435 226.046 1.97435C226.356 3.31114 226.749 4.6273 227.222 5.91515C227.328 6.19355 227.443 6.46715 227.558 6.72155C228.422 8.58875 228.422 1.97435 228.422 1.97435L229.142 4.56155C229.142 4.56155 233.462 -3.05605 236.472 -5.07205C239.482 -7.08805 252.288 -6.65125 258.475 -4.20805L264.514 5.91995C264.514 5.91995 261.586 5.91995 261.048 7.86875C260.875 10.1727 261.048 13.7775 261.048 13.7775C257.657 12.4174 254.796 10.0002 252.888 6.88475C252.888 6.88475 250.195 16.4799 245.664 21.9327Z" fill="#141518"/>
<path d="M233.683 18.808C233.683 18.808 238.003 25.2688 236.823 30.328C236.823 30.328 233.554 25.576 232.647 24.568C231.048 22.8016 230.074 15.28 230.074 15.28L233.683 18.808Z" fill="#141518"/>
<path d="M321.053 67.1968C322.555 65.6608 324.6 64.7968 326.587 63.9904C328.33 63.2752 330.11 62.5504 331.992 62.416" stroke="#141518" stroke-width="0.48" stroke-linecap="round" stroke-linejoin="round"/>
<path d="M267.24 76.1008L275.136 77.32L275.856 88.5712L269.093 87.8176L269.986 86.9392L269.463 83.92L272.76 86.9392C273.151 86.762 273.481 86.4755 273.712 86.1143C273.943 85.7531 274.064 85.3327 274.061 84.904C274.152 83.3008 267.24 76.1008 267.24 76.1008Z" fill="#141518"/>
<path d="M267.643 82.2255L265.185 79.1967L262.747 78.5007L267.643 82.2255Z" fill="#141518"/>
<path d="M266.525 87.4479L261.581 86.2287L258.854 82.5903L266.525 87.4479Z" fill="#141518"/>
<path d="M268.752 65.9824C268.666 67.3306 269.101 68.6601 269.966 69.6976C270.822 70.5344 271.9 71.1076 273.072 71.3488C273.329 71.4474 273.603 71.4939 273.878 71.4857C274.153 71.4774 274.424 71.4146 274.675 71.3008C275.213 70.9744 275.371 70.2784 275.481 69.6592C275.961 66.9376 276.369 63.952 275.001 61.5568C274.493 60.6736 273.345 57.1312 272.352 56.9104C269.443 56.272 268.8 64 268.752 65.9824Z" fill="#141518"/>
<path d="M305.53 37.6001L307.623 46.9553C307.989 49.1007 307.789 51.3045 307.042 53.3489L307.483 56.7665L308.386 61.9457C308.386 61.9457 307.071 70.4705 304.296 74.3345C301.522 78.1985 301.215 76.7345 301.215 76.7345L302.271 87.7169C298.62 89.9186 294.465 91.145 290.203 91.2785C283.411 91.3649 275.856 88.5473 275.856 88.5473C275.821 84.7866 275.581 81.0306 275.136 77.2961C274.44 72.4913 273.571 67.3601 273.571 67.3601L270.912 64.0001L268.771 61.1201L267.24 56.1761L268.311 52.9217L268.863 52.3121C269.508 51.9752 270.191 51.7158 270.898 51.5393C271.733 51.3905 275.218 54.6977 275.218 54.6977L275.611 46.1057L276.447 36.9857L293.247 31.7393L301.699 34.3889L305.53 37.6001Z" fill="white"/>
<path d="M306.235 40.2976C306.235 40.2976 307.958 47.8144 307.838 48.7984C307.718 49.7824 307.041 54.3424 307.041 54.3424L308.337 61.4752C308.414 61.899 308.4 62.3344 308.294 62.752C307.733 64.984 305.717 72.4816 303.115 76.4368C300.033 81.1216 284.054 78.8656 280.728 76.4032L277.459 65.8192" stroke="#141518" stroke-width="0.48" stroke-linecap="round" stroke-linejoin="round"/>
<path d="M292.742 66.2559C292.742 66.2559 295.089 69.6159 298.608 69.0495" stroke="#141518" stroke-width="0.48" stroke-linecap="round" stroke-linejoin="round"/>
<path d="M273.571 67.3601C273.571 67.3601 276.101 80.0513 275.856 88.5761C275.856 88.5761 282.806 91.2257 289.493 91.3121C296.179 91.3985 302.28 87.7409 302.28 87.7409C301.757 84.4097 301.498 77.5169 301.498 77.5169" stroke="#141518" stroke-width="0.48" stroke-linecap="round" stroke-linejoin="round"/>
<path d="M275.635 55.4992C276.062 57.6352 277.075 59.5457 277.483 61.6769C277.56 62.2988 277.768 62.8974 278.093 63.4337C278.659 64.2353 280.569 64.0048 281.486 63.6592C281.553 63.6592 280.761 58.4465 280.742 57.7601C280.651 55.7459 280.956 53.7334 281.64 51.8369C282.293 50.1665 282.921 48.5632 282.749 46.7344C282.561 44.704 281.688 42.7888 280.795 40.9744C283.195 42.4281 285.963 43.1596 288.768 43.0816C293.16 42.8368 290.717 38.5697 290.717 38.5697C290.717 38.5697 303.278 42.2272 310.473 39.1792C317.669 36.1312 318.523 30.1552 316.713 27.3472C314.904 24.5392 303.557 28.2064 304.305 27.6928C305.265 27.0448 306.921 25.2928 306.48 24.016C306.401 23.8125 306.277 23.6298 306.116 23.4824C305.956 23.335 305.763 23.2268 305.553 23.1664C303.768 22.6096 301.037 24.1888 299.472 24.8992C297.384 25.8592 295.329 26.9008 293.107 27.4816C289.08 28.5424 284.889 28.5089 280.766 28.6481C278.817 28.7153 276.883 28.8592 274.949 29.0416C273.273 29.1952 271.406 29.3537 270.091 30.5297C270.049 30.5644 270.01 30.6029 269.976 30.6448C268.2 32.704 271.037 54.4001 271.037 54.4001L275.635 55.4992Z" fill="#141518"/>
<path d="M271.963 35.0897C271.963 35.0897 269.001 33.8369 267.062 35.6609C265.123 37.4849 268.43 54.6977 268.43 54.6977L272.467 54.6449L271.963 35.0897Z" fill="#141518"/>
<path d="M222.423 158.978H356.242L353.194 149.786C353.194 149.786 338.563 109.187 329.64 96.3664L325.2 93.5392L321.413 91.8592L304.464 91.1152L303.063 86.9392C303.063 86.9392 296.232 91.36 289.498 91.3072C282.763 91.2544 274.699 87.8032 274.699 87.8032L274.066 93.5632C274.066 93.5632 257.779 98.0656 254.866 98.7664C251.952 99.4672 237 106.797 237 106.797C237 106.797 236.76 107.963 236.362 110.267C235.963 112.571 229.944 131.574 229.944 131.574L221.16 158.978H222.423Z" fill="#3EABFD"/>
<path d="M297.859 52.312C297.984 53.1568 298.133 54 298.306 54.8416C298.507 55.8016 298.786 56.8528 299.563 57.4672C300.202 57.9472 301.095 58.1008 301.651 58.6912C301.932 59.0371 302.11 59.4551 302.165 59.8974C302.219 60.3397 302.148 60.7884 301.959 61.192C301.574 61.9956 301.037 62.7176 300.379 63.3184" stroke="#141518" stroke-width="0.48" stroke-linecap="round" stroke-linejoin="round"/>
<path d="M303.945 54.6976C303.945 55.6576 303.547 56.4688 303.057 56.4688C302.568 56.4688 302.169 55.6768 302.169 54.6976C302.169 53.7184 302.568 52.9216 303.057 52.9216C303.547 52.9216 303.945 53.7184 303.945 54.6976Z" fill="#141518"/>
<path d="M293.16 55.1345C293.16 56.1185 292.761 56.9105 292.272 56.9105C291.782 56.9105 291.384 56.1185 291.384 55.1345C291.384 54.1505 291.782 53.3633 292.272 53.3633C292.761 53.3633 293.16 54.1553 293.16 55.1345Z" fill="#141518"/>
<path d="M293.799 50.1856C293.799 50.1856 290.995 47.9584 287.616 51.1936" stroke="#141518" stroke-width="0.96" stroke-linecap="round" stroke-linejoin="round"/>
<path d="M300.917 49.8064C300.917 49.8064 304.047 48.0592 306.197 50.2624" stroke="#141518" stroke-width="0.96" stroke-linecap="round" stroke-linejoin="round"/>
<path d="M307.042 67.1871C307.042 67.1871 305.467 75.8271 300.917 76.1007C296.366 76.3743 297.331 72.1023 297.331 72.1023L293.798 71.4831C293.798 71.4831 292.882 75.6975 289.805 75.6975C286.728 75.6975 281.842 68.5935 280.829 60.0975L275.232 54.6975C275.232 54.6975 277.464 67.2639 278.981 71.4975L280.728 76.3935C280.728 76.3935 287.616 80.7519 294.6 82.2399C301.637 80.7663 302.328 77.7711 303.106 76.4511C303.883 75.1311 307.042 67.1871 307.042 67.1871Z" fill="#141518"/>
<path d="M272.165 34.3936C272.202 33.8726 272.357 33.3667 272.617 32.9138C272.877 32.4608 273.236 32.0724 273.667 31.7776C274.532 31.1926 275.516 30.8073 276.547 30.6496C280.114 29.968 283.781 30.6208 287.395 31.0192C291.01 31.4176 294.835 31.5328 298.085 29.9056C299.362 29.256 300.499 28.3607 301.43 27.2709C302.361 26.1812 303.067 24.9185 303.509 23.5552" stroke="white" stroke-width="0.48" stroke-linecap="round" stroke-linejoin="round"/>
<path d="M276.864 35.4641C277.39 35.0331 277.995 34.7072 278.645 34.5041C281.251 33.6161 284.126 34.0577 286.805 34.7825C289.483 35.5073 292.085 36.5057 294.83 36.7025C296.61 36.7939 298.395 36.6779 300.149 36.3569C303.144 35.8769 306.158 35.1665 308.789 33.6449C311.419 32.1233 313.627 29.6945 314.333 26.7473" stroke="white" stroke-width="0.48" stroke-linecap="round" stroke-linejoin="round"/>
<path d="M274.061 37.0144C273.618 36.9777 273.175 37.0794 272.792 37.3056C272.409 37.5317 272.106 37.8711 271.925 38.2768C271.57 39.0931 271.406 39.9796 271.445 40.8688C271.379 45.0605 271.782 49.2465 272.645 53.3488" stroke="white" stroke-width="0.48" stroke-linecap="round" stroke-linejoin="round"/>
<path d="M277.694 66.4913C277.694 66.4913 275.942 67.9985 274.723 67.9313C273.686 67.8641 269.923 62.7137 268.843 61.2113C268.656 60.944 268.512 60.6493 268.416 60.3377L267.403 56.9249C267.216 56.306 267.24 55.6425 267.47 55.0385L268.022 53.5985C268.161 53.2298 268.372 52.8928 268.643 52.6075C268.914 52.3221 269.24 52.0943 269.602 51.9377C270.144 51.7029 270.744 51.6364 271.324 51.7468C271.904 51.8572 272.438 52.1394 272.856 52.5569L275.602 55.2977" fill="white"/>
<path d="M277.694 66.4913C277.694 66.4913 275.942 67.9985 274.723 67.9313C273.686 67.8641 269.923 62.7137 268.843 61.2113C268.656 60.944 268.512 60.6493 268.416 60.3377L267.403 56.9249C267.216 56.306 267.24 55.6425 267.47 55.0385L268.022 53.5985C268.161 53.2298 268.372 52.8928 268.643 52.6075C268.914 52.3221 269.24 52.0943 269.602 51.9377C270.144 51.7029 270.744 51.6364 271.324 51.7468C271.904 51.8572 272.438 52.1394 272.856 52.5569L275.602 55.2977" stroke="#141518" stroke-width="0.48" stroke-linecap="round" stroke-linejoin="round"/>
<path d="M304.301 92.0944L303.057 86.9392C303.057 86.9392 295.406 91.6912 290.203 91.3024C285 90.9136 276.859 89.104 274.694 87.8032L274.061 93.5632C274.061 93.5632 280.781 98.9776 289.32 98.7568C297.859 98.536 304.301 92.0944 304.301 92.0944Z" stroke="#141518" stroke-width="0.48" stroke-linecap="round" stroke-linejoin="round"/>
<path d="M319.694 68.368C315.043 59.1088 307.262 53.5264 307.262 53.5264" stroke="#141518" stroke-width="0.48" stroke-linecap="round" stroke-linejoin="round"/>
<path d="M274.061 93.5393L256.421 98.2673C255.237 98.5832 254.078 98.9875 252.955 99.4769C248.683 101.339 237.754 106.135 236.986 106.797C236.854 106.92 236.749 107.069 236.676 107.234C236.604 107.399 236.565 107.577 236.563 107.757C236.492 109.922 236.141 112.07 235.522 114.146L221.122 158.968" stroke="#141518" stroke-width="0.48" stroke-linecap="round" stroke-linejoin="round"/>
<path d="M356.242 158.978C344.28 121.83 334.44 103.84 330.835 97.9311C329.939 96.461 328.649 95.2719 327.11 94.4991L323.174 92.5263C322.008 91.9458 320.732 91.6186 319.43 91.5663L304.301 90.9375" stroke="#141518" stroke-width="0.48" stroke-linecap="round" stroke-linejoin="round"/>
<path d="M271.277 108.088C270.335 109.758 269.491 111.481 268.747 113.248" stroke="#141518" stroke-width="0.48" stroke-linecap="round" stroke-linejoin="round"/>
<path d="M278.933 96.4287C276.532 99.6288 274.301 102.953 272.251 106.389" stroke="#141518" stroke-width="0.48" stroke-linecap="round" stroke-linejoin="round"/>
<path d="M281.073 97.3071C281.073 97.3071 278.582 104.31 277.713 110.267" stroke="#141518" stroke-width="0.48" stroke-linecap="round" stroke-linejoin="round"/>
<path d="M305.448 104.838C306.085 106.08 306.618 107.372 307.041 108.702" stroke="#141518" stroke-width="0.48" stroke-linecap="round" stroke-linejoin="round"/>
<path d="M299.256 95.7761C301.143 97.9434 302.831 100.276 304.301 102.746" stroke="#141518" stroke-width="0.48" stroke-linecap="round" stroke-linejoin="round"/>
<path d="M296.04 97.3071C296.04 97.3071 298.603 104.781 298.594 108.702" stroke="#141518" stroke-width="0.48" stroke-linecap="round" stroke-linejoin="round"/>
<path opacity="0.3" d="M348.946 158.982H221.16L229.959 131.574C229.959 131.574 235.978 112.571 236.371 110.272C236.765 107.973 237.01 106.797 237.01 106.797C237.01 106.797 251.971 99.4431 254.89 98.7375C257.808 98.0319 274.09 93.5439 274.09 93.5439L274.723 87.7839C274.723 87.7839 282.792 91.2351 289.527 91.2879C294.029 91.3263 298.584 89.3679 301.095 88.0479L301.517 91.9215C299.866 93.4431 295.791 96.9183 291.187 98.7135C291.576 98.6271 297.581 97.2255 301.747 93.9855V94.1775C301.747 94.1775 321.216 95.7519 324.091 98.0175C330.274 103.005 344.765 147.717 348.946 158.982Z" fill="black"/>
<path d="M27.68 62.16C27.36 62.16 27.1 62.0867 26.9 61.94C26.7133 61.7933 26.6 61.6 26.56 61.36C26.52 61.1067 26.5667 60.8267 26.7 60.52L31.98 48.82C32.1533 48.4333 32.36 48.16 32.6 48C32.8533 47.8267 33.14 47.74 33.46 47.74C33.7667 47.74 34.04 47.8267 34.28 48C34.5333 48.16 34.7467 48.4333 34.92 48.82L40.22 60.52C40.3667 60.8267 40.42 61.1067 40.38 61.36C40.34 61.6133 40.2267 61.8133 40.04 61.96C39.8533 62.0933 39.6067 62.16 39.3 62.16C38.9267 62.16 38.6333 62.0733 38.42 61.9C38.22 61.7133 38.04 61.4333 37.88 61.06L36.58 58.04L37.66 58.74H29.22L30.3 58.04L29.02 61.06C28.8467 61.4467 28.6667 61.7267 28.48 61.9C28.2933 62.0733 28.0267 62.16 27.68 62.16ZM33.42 50.68L30.62 57.34L30.1 56.7H36.78L36.28 57.34L33.46 50.68H33.42ZM46.6452 65.8C45.9252 65.8 45.2252 65.7333 44.5452 65.6C43.8785 65.4667 43.2718 65.26 42.7252 64.98C42.4718 64.8467 42.2985 64.6867 42.2052 64.5C42.1252 64.3133 42.0985 64.12 42.1252 63.92C42.1652 63.7333 42.2452 63.5667 42.3652 63.42C42.4985 63.2733 42.6585 63.1733 42.8452 63.12C43.0318 63.0667 43.2252 63.0933 43.4252 63.2C44.0118 63.4933 44.5652 63.68 45.0852 63.76C45.6185 63.8533 46.0718 63.9 46.4452 63.9C47.3385 63.9 48.0052 63.68 48.4452 63.24C48.8985 62.8133 49.1252 62.1733 49.1252 61.32V59.52H49.3052C49.1052 60.2 48.6852 60.7467 48.0452 61.16C47.4185 61.56 46.7052 61.76 45.9052 61.76C45.0252 61.76 44.2585 61.56 43.6052 61.16C42.9518 60.7467 42.4452 60.1733 42.0852 59.44C41.7252 58.7067 41.5452 57.8533 41.5452 56.88C41.5452 56.1467 41.6452 55.4867 41.8452 54.9C42.0585 54.3 42.3518 53.7867 42.7252 53.36C43.1118 52.9333 43.5718 52.6067 44.1052 52.38C44.6518 52.14 45.2518 52.02 45.9052 52.02C46.7318 52.02 47.4518 52.2267 48.0652 52.64C48.6918 53.04 49.0985 53.5733 49.2852 54.24L49.0852 54.74V53.32C49.0852 52.9067 49.1918 52.5933 49.4052 52.38C49.6318 52.1667 49.9385 52.06 50.3252 52.06C50.7252 52.06 51.0318 52.1667 51.2452 52.38C51.4585 52.5933 51.5652 52.9067 51.5652 53.32V61.02C51.5652 62.6067 51.1452 63.8 50.3052 64.6C49.4652 65.4 48.2452 65.8 46.6452 65.8ZM46.5852 59.86C47.1052 59.86 47.5518 59.74 47.9252 59.5C48.2985 59.26 48.5852 58.92 48.7852 58.48C48.9985 58.0267 49.1052 57.4933 49.1052 56.88C49.1052 55.96 48.8785 55.24 48.4252 54.72C47.9718 54.1867 47.3585 53.92 46.5852 53.92C46.0652 53.92 45.6185 54.04 45.2452 54.28C44.8718 54.52 44.5785 54.86 44.3652 55.3C44.1652 55.74 44.0652 56.2667 44.0652 56.88C44.0652 57.8 44.2918 58.5267 44.7452 59.06C45.1985 59.5933 45.8118 59.86 46.5852 59.86ZM58.9755 62.2C57.8688 62.2 56.9155 61.9933 56.1155 61.58C55.3155 61.1667 54.6955 60.58 54.2555 59.82C53.8288 59.06 53.6155 58.16 53.6155 57.12C53.6155 56.1067 53.8221 55.22 54.2355 54.46C54.6621 53.7 55.2421 53.1067 55.9755 52.68C56.7221 52.24 57.5688 52.02 58.5155 52.02C59.2088 52.02 59.8288 52.1333 60.3755 52.36C60.9355 52.5867 61.4088 52.9133 61.7955 53.34C62.1955 53.7667 62.4955 54.2867 62.6955 54.9C62.9088 55.5 63.0155 56.18 63.0155 56.94C63.0155 57.18 62.9288 57.3667 62.7555 57.5C62.5955 57.62 62.3621 57.68 62.0555 57.68H55.6355V56.24H61.2555L60.9355 56.54C60.9355 55.9267 60.8421 55.4133 60.6555 55C60.4821 54.5867 60.2221 54.2733 59.8755 54.06C59.5421 53.8333 59.1221 53.72 58.6155 53.72C58.0555 53.72 57.5755 53.8533 57.1755 54.12C56.7888 54.3733 56.4888 54.74 56.2755 55.22C56.0755 55.6867 55.9755 56.2467 55.9755 56.9V57.04C55.9755 58.1333 56.2288 58.9533 56.7355 59.5C57.2555 60.0333 58.0155 60.3 59.0155 60.3C59.3621 60.3 59.7488 60.26 60.1755 60.18C60.6155 60.0867 61.0288 59.9333 61.4155 59.72C61.6955 59.56 61.9421 59.4933 62.1555 59.52C62.3688 59.5333 62.5355 59.6067 62.6555 59.74C62.7888 59.8733 62.8688 60.04 62.8955 60.24C62.9221 60.4267 62.8821 60.62 62.7755 60.82C62.6821 61.02 62.5155 61.1933 62.2755 61.34C61.8088 61.6333 61.2688 61.8533 60.6555 62C60.0555 62.1333 59.4955 62.2 58.9755 62.2ZM66.2353 62.16C65.8353 62.16 65.5286 62.0533 65.3153 61.84C65.102 61.6133 64.9953 61.2933 64.9953 60.88V53.32C64.9953 52.9067 65.102 52.5933 65.3153 52.38C65.5286 52.1667 65.8286 52.06 66.2153 52.06C66.602 52.06 66.902 52.1667 67.1153 52.38C67.3286 52.5933 67.4353 52.9067 67.4353 53.32V54.68L67.2153 54.18C67.5086 53.4733 67.962 52.94 68.5753 52.58C69.202 52.2067 69.9086 52.02 70.6953 52.02C71.482 52.02 72.1286 52.1667 72.6353 52.46C73.142 52.7533 73.522 53.2 73.7753 53.8C74.0286 54.3867 74.1553 55.1333 74.1553 56.04V60.88C74.1553 61.2933 74.0486 61.6133 73.8353 61.84C73.622 62.0533 73.3153 62.16 72.9153 62.16C72.5153 62.16 72.202 62.0533 71.9753 61.84C71.762 61.6133 71.6553 61.2933 71.6553 60.88V56.16C71.6553 55.4 71.5086 54.8467 71.2153 54.5C70.9353 54.1533 70.4953 53.98 69.8953 53.98C69.162 53.98 68.5753 54.2133 68.1353 54.68C67.7086 55.1333 67.4953 55.74 67.4953 56.5V60.88C67.4953 61.7333 67.0753 62.16 66.2353 62.16ZM80.4545 62.2C79.6012 62.2 78.8479 61.9933 78.1945 61.58C77.5545 61.1667 77.0545 60.58 76.6945 59.82C76.3345 59.0467 76.1545 58.14 76.1545 57.1C76.1545 56.0467 76.3345 55.1467 76.6945 54.4C77.0545 53.64 77.5545 53.0533 78.1945 52.64C78.8479 52.2267 79.6012 52.02 80.4545 52.02C81.2679 52.02 81.9745 52.22 82.5745 52.62C83.1879 53.02 83.6012 53.5467 83.8145 54.2H83.5945V49C83.5945 48.5867 83.7012 48.2733 83.9145 48.06C84.1279 47.8467 84.4345 47.74 84.8345 47.74C85.2345 47.74 85.5412 47.8467 85.7545 48.06C85.9812 48.2733 86.0945 48.5867 86.0945 49V60.88C86.0945 61.2933 85.9879 61.6133 85.7745 61.84C85.5612 62.0533 85.2545 62.16 84.8545 62.16C84.4545 62.16 84.1479 62.0533 83.9345 61.84C83.7212 61.6133 83.6145 61.2933 83.6145 60.88V59.32L83.8345 59.92C83.6345 60.6133 83.2279 61.1667 82.6145 61.58C82.0012 61.9933 81.2812 62.2 80.4545 62.2ZM81.1545 60.3C81.6479 60.3 82.0812 60.18 82.4545 59.94C82.8279 59.7 83.1145 59.3467 83.3145 58.88C83.5279 58.4 83.6345 57.8067 83.6345 57.1C83.6345 56.0333 83.4079 55.24 82.9545 54.72C82.5012 54.1867 81.9012 53.92 81.1545 53.92C80.6612 53.92 80.2279 54.04 79.8545 54.28C79.4812 54.5067 79.1879 54.86 78.9745 55.34C78.7745 55.8067 78.6745 56.3933 78.6745 57.1C78.6745 58.1533 78.9012 58.9533 79.3545 59.5C79.8079 60.0333 80.4079 60.3 81.1545 60.3ZM93.5067 62.2C92.4001 62.2 91.4467 61.9933 90.6467 61.58C89.8467 61.1667 89.2267 60.58 88.7867 59.82C88.3601 59.06 88.1467 58.16 88.1467 57.12C88.1467 56.1067 88.3534 55.22 88.7667 54.46C89.1934 53.7 89.7734 53.1067 90.5067 52.68C91.2534 52.24 92.1001 52.02 93.0467 52.02C93.7401 52.02 94.3601 52.1333 94.9067 52.36C95.4667 52.5867 95.9401 52.9133 96.3267 53.34C96.7267 53.7667 97.0267 54.2867 97.2267 54.9C97.4401 55.5 97.5467 56.18 97.5467 56.94C97.5467 57.18 97.4601 57.3667 97.2867 57.5C97.1267 57.62 96.8934 57.68 96.5867 57.68H90.1667V56.24H95.7867L95.4667 56.54C95.4667 55.9267 95.3734 55.4133 95.1867 55C95.0134 54.5867 94.7534 54.2733 94.4067 54.06C94.0734 53.8333 93.6534 53.72 93.1467 53.72C92.5867 53.72 92.1067 53.8533 91.7067 54.12C91.3201 54.3733 91.0201 54.74 90.8067 55.22C90.6067 55.6867 90.5067 56.2467 90.5067 56.9V57.04C90.5067 58.1333 90.7601 58.9533 91.2667 59.5C91.7867 60.0333 92.5467 60.3 93.5467 60.3C93.8934 60.3 94.2801 60.26 94.7067 60.18C95.1467 60.0867 95.5601 59.9333 95.9467 59.72C96.2267 59.56 96.4734 59.4933 96.6867 59.52C96.9001 59.5333 97.0667 59.6067 97.1867 59.74C97.3201 59.8733 97.4001 60.04 97.4267 60.24C97.4534 60.4267 97.4134 60.62 97.3067 60.82C97.2134 61.02 97.0467 61.1933 96.8067 61.34C96.3401 61.6333 95.8001 61.8533 95.1867 62C94.5867 62.1333 94.0267 62.2 93.5067 62.2ZM106.196 62.16C105.796 62.16 105.49 62.0533 105.276 61.84C105.063 61.6133 104.956 61.2933 104.956 60.88V53.32C104.956 52.9067 105.063 52.5933 105.276 52.38C105.49 52.1667 105.79 52.06 106.176 52.06C106.563 52.06 106.863 52.1667 107.076 52.38C107.29 52.5933 107.396 52.9067 107.396 53.32V54.68L107.176 54.18C107.47 53.4733 107.923 52.94 108.536 52.58C109.163 52.2067 109.87 52.02 110.656 52.02C111.443 52.02 112.09 52.1667 112.596 52.46C113.103 52.7533 113.483 53.2 113.736 53.8C113.99 54.3867 114.116 55.1333 114.116 56.04V60.88C114.116 61.2933 114.01 61.6133 113.796 61.84C113.583 62.0533 113.276 62.16 112.876 62.16C112.476 62.16 112.163 62.0533 111.936 61.84C111.723 61.6133 111.616 61.2933 111.616 60.88V56.16C111.616 55.4 111.47 54.8467 111.176 54.5C110.896 54.1533 110.456 53.98 109.856 53.98C109.123 53.98 108.536 54.2133 108.096 54.68C107.67 55.1333 107.456 55.74 107.456 56.5V60.88C107.456 61.7333 107.036 62.16 106.196 62.16ZM119.875 62.2C119.169 62.2 118.535 62.0667 117.975 61.8C117.429 61.52 116.995 61.1467 116.675 60.68C116.369 60.2133 116.215 59.6867 116.215 59.1C116.215 58.38 116.402 57.8133 116.775 57.4C117.149 56.9733 117.755 56.6667 118.595 56.48C119.435 56.2933 120.562 56.2 121.975 56.2H122.975V57.64H121.995C121.169 57.64 120.509 57.68 120.015 57.76C119.522 57.84 119.169 57.98 118.955 58.18C118.755 58.3667 118.655 58.6333 118.655 58.98C118.655 59.42 118.809 59.78 119.115 60.06C119.422 60.34 119.849 60.48 120.395 60.48C120.835 60.48 121.222 60.38 121.555 60.18C121.902 59.9667 122.175 59.68 122.375 59.32C122.575 58.96 122.675 58.5467 122.675 58.08V55.78C122.675 55.1133 122.529 54.6333 122.235 54.34C121.942 54.0467 121.449 53.9 120.755 53.9C120.369 53.9 119.949 53.9467 119.495 54.04C119.055 54.1333 118.589 54.2933 118.095 54.52C117.842 54.64 117.615 54.6733 117.415 54.62C117.229 54.5667 117.082 54.46 116.975 54.3C116.869 54.1267 116.815 53.94 116.815 53.74C116.815 53.54 116.869 53.3467 116.975 53.16C117.082 52.96 117.262 52.8133 117.515 52.72C118.129 52.4667 118.715 52.2867 119.275 52.18C119.849 52.0733 120.369 52.02 120.835 52.02C121.795 52.02 122.582 52.1667 123.195 52.46C123.822 52.7533 124.289 53.2 124.595 53.8C124.902 54.3867 125.055 55.1467 125.055 56.08V60.88C125.055 61.2933 124.955 61.6133 124.755 61.84C124.555 62.0533 124.269 62.16 123.895 62.16C123.522 62.16 123.229 62.0533 123.015 61.84C122.815 61.6133 122.715 61.2933 122.715 60.88V59.92H122.875C122.782 60.3867 122.595 60.7933 122.315 61.14C122.049 61.4733 121.709 61.7333 121.295 61.92C120.882 62.1067 120.409 62.2 119.875 62.2Z" fill="white"/>
<path d="M28.58 84.16C28.18 84.16 27.8733 84.0533 27.66 83.84C27.4467 83.6133 27.34 83.2933 27.34 82.88V75.32C27.34 74.9067 27.4467 74.5933 27.66 74.38C27.8733 74.1667 28.1733 74.06 28.56 74.06C28.9467 74.06 29.2467 74.1667 29.46 74.38C29.6733 74.5933 29.78 74.9067 29.78 75.32V76.78L29.56 76.18C29.8267 75.5133 30.24 74.9867 30.8 74.6C31.36 74.2133 32.0267 74.02 32.8 74.02C33.5867 74.02 34.2333 74.2067 34.74 74.58C35.2467 74.9533 35.6 75.5267 35.8 76.3H35.52C35.7867 75.5933 36.2267 75.04 36.84 74.64C37.4533 74.2267 38.16 74.02 38.96 74.02C39.7067 74.02 40.32 74.1667 40.8 74.46C41.2933 74.7533 41.66 75.2 41.9 75.8C42.14 76.3867 42.26 77.1333 42.26 78.04V82.88C42.26 83.2933 42.1467 83.6133 41.92 83.84C41.7067 84.0533 41.4 84.16 41 84.16C40.6 84.16 40.2933 84.0533 40.08 83.84C39.8667 83.6133 39.76 83.2933 39.76 82.88V78.14C39.76 77.3933 39.6333 76.8467 39.38 76.5C39.14 76.1533 38.7267 75.98 38.14 75.98C37.4867 75.98 36.9733 76.2133 36.6 76.68C36.2267 77.1333 36.04 77.7667 36.04 78.58V82.88C36.04 83.2933 35.9333 83.6133 35.72 83.84C35.5067 84.0533 35.2 84.16 34.8 84.16C34.4 84.16 34.0867 84.0533 33.86 83.84C33.6467 83.6133 33.54 83.2933 33.54 82.88V78.14C33.54 77.3933 33.4133 76.8467 33.16 76.5C32.92 76.1533 32.5133 75.98 31.94 75.98C31.2867 75.98 30.7733 76.2133 30.4 76.68C30.0267 77.1333 29.84 77.7667 29.84 78.58V82.88C29.84 83.7333 29.42 84.16 28.58 84.16ZM49.6591 84.2C48.5524 84.2 47.5991 83.9933 46.7991 83.58C45.9991 83.1667 45.3791 82.58 44.9391 81.82C44.5124 81.06 44.2991 80.16 44.2991 79.12C44.2991 78.1067 44.5057 77.22 44.9191 76.46C45.3457 75.7 45.9257 75.1067 46.6591 74.68C47.4057 74.24 48.2524 74.02 49.1991 74.02C49.8924 74.02 50.5124 74.1333 51.0591 74.36C51.6191 74.5867 52.0924 74.9133 52.4791 75.34C52.8791 75.7667 53.1791 76.2867 53.3791 76.9C53.5924 77.5 53.6991 78.18 53.6991 78.94C53.6991 79.18 53.6124 79.3667 53.4391 79.5C53.2791 79.62 53.0457 79.68 52.7391 79.68H46.3191V78.24H51.9391L51.6191 78.54C51.6191 77.9267 51.5257 77.4133 51.3391 77C51.1657 76.5867 50.9057 76.2733 50.5591 76.06C50.2257 75.8333 49.8057 75.72 49.2991 75.72C48.7391 75.72 48.2591 75.8533 47.8591 76.12C47.4724 76.3733 47.1724 76.74 46.9591 77.22C46.7591 77.6867 46.6591 78.2467 46.6591 78.9V79.04C46.6591 80.1333 46.9124 80.9533 47.4191 81.5C47.9391 82.0333 48.6991 82.3 49.6991 82.3C50.0457 82.3 50.4324 82.26 50.8591 82.18C51.2991 82.0867 51.7124 81.9333 52.0991 81.72C52.3791 81.56 52.6257 81.4933 52.8391 81.52C53.0524 81.5333 53.2191 81.6067 53.3391 81.74C53.4724 81.8733 53.5524 82.04 53.5791 82.24C53.6057 82.4267 53.5657 82.62 53.4591 82.82C53.3657 83.02 53.1991 83.1933 52.9591 83.34C52.4924 83.6333 51.9524 83.8533 51.3391 84C50.7391 84.1333 50.1791 84.2 49.6591 84.2ZM59.0189 84.2C57.9122 84.2 57.0789 83.8867 56.5189 83.26C55.9589 82.62 55.6789 81.6867 55.6789 80.46V71C55.6789 70.5867 55.7856 70.2733 55.9989 70.06C56.2122 69.8467 56.5189 69.74 56.9189 69.74C57.3189 69.74 57.6256 69.8467 57.8389 70.06C58.0656 70.2733 58.1789 70.5867 58.1789 71V80.34C58.1789 80.9533 58.3056 81.4067 58.5589 81.7C58.8256 81.9933 59.1989 82.14 59.6789 82.14C59.7856 82.14 59.8856 82.14 59.9789 82.14C60.0722 82.1267 60.1656 82.1133 60.2589 82.1C60.4456 82.0733 60.5722 82.1267 60.6389 82.26C60.7056 82.38 60.7389 82.6333 60.7389 83.02C60.7389 83.3533 60.6722 83.6133 60.5389 83.8C60.4056 83.9867 60.1856 84.1 59.8789 84.14C59.7456 84.1533 59.6056 84.1667 59.4589 84.18C59.3122 84.1933 59.1656 84.2 59.0189 84.2ZM63.3056 84.16C62.9056 84.16 62.599 84.0533 62.3856 83.84C62.1723 83.6133 62.0656 83.2933 62.0656 82.88V71C62.0656 70.5867 62.1723 70.2733 62.3856 70.06C62.599 69.8467 62.9056 69.74 63.3056 69.74C63.7056 69.74 64.0123 69.8467 64.2256 70.06C64.4523 70.2733 64.5656 70.5867 64.5656 71V76.18H64.2856C64.579 75.4733 65.0323 74.94 65.6456 74.58C66.2723 74.2067 66.979 74.02 67.7656 74.02C68.5523 74.02 69.199 74.1667 69.7056 74.46C70.2123 74.7533 70.5923 75.2 70.8456 75.8C71.099 76.3867 71.2256 77.1333 71.2256 78.04V82.88C71.2256 83.2933 71.119 83.6133 70.9056 83.84C70.6923 84.0533 70.3856 84.16 69.9856 84.16C69.5856 84.16 69.2723 84.0533 69.0456 83.84C68.8323 83.6133 68.7256 83.2933 68.7256 82.88V78.16C68.7256 77.4 68.579 76.8467 68.2856 76.5C68.0056 76.1533 67.5656 75.98 66.9656 75.98C66.2323 75.98 65.6456 76.2133 65.2056 76.68C64.779 77.1333 64.5656 77.74 64.5656 78.5V82.88C64.5656 83.7333 64.1456 84.16 63.3056 84.16ZM78.2248 84.2C77.2115 84.2 76.3315 83.9933 75.5848 83.58C74.8382 83.1667 74.2582 82.58 73.8448 81.82C73.4315 81.0467 73.2248 80.14 73.2248 79.1C73.2248 78.3133 73.3382 77.6133 73.5648 77C73.8048 76.3733 74.1448 75.84 74.5848 75.4C75.0248 74.9467 75.5515 74.6067 76.1648 74.38C76.7782 74.14 77.4648 74.02 78.2248 74.02C79.2382 74.02 80.1182 74.2267 80.8648 74.64C81.6115 75.0533 82.1915 75.64 82.6048 76.4C83.0182 77.16 83.2248 78.06 83.2248 79.1C83.2248 79.8867 83.1048 80.5933 82.8648 81.22C82.6382 81.8467 82.3048 82.3867 81.8648 82.84C81.4248 83.28 80.8982 83.62 80.2848 83.86C79.6715 84.0867 78.9848 84.2 78.2248 84.2ZM78.2248 82.3C78.7182 82.3 79.1515 82.18 79.5248 81.94C79.8982 81.7 80.1848 81.3467 80.3848 80.88C80.5982 80.4 80.7048 79.8067 80.7048 79.1C80.7048 78.0333 80.4782 77.24 80.0248 76.72C79.5715 76.1867 78.9715 75.92 78.2248 75.92C77.7315 75.92 77.2982 76.04 76.9248 76.28C76.5515 76.5067 76.2582 76.86 76.0448 77.34C75.8448 77.8067 75.7448 78.3933 75.7448 79.1C75.7448 80.1533 75.9715 80.9533 76.4248 81.5C76.8782 82.0333 77.4782 82.3 78.2248 82.3ZM86.5683 84.16C86.1549 84.16 85.8349 84.0533 85.6083 83.84C85.3949 83.6133 85.2883 83.2933 85.2883 82.88V75.32C85.2883 74.9067 85.3949 74.5933 85.6083 74.38C85.8216 74.1667 86.1216 74.06 86.5083 74.06C86.8949 74.06 87.1949 74.1667 87.4083 74.38C87.6216 74.5933 87.7283 74.9067 87.7283 75.32V76.58H87.5283C87.7149 75.78 88.0816 75.1733 88.6283 74.76C89.1749 74.3467 89.9016 74.1 90.8083 74.02C91.0883 73.9933 91.3083 74.0667 91.4683 74.24C91.6416 74.4 91.7416 74.6533 91.7683 75C91.7949 75.3333 91.7149 75.6067 91.5283 75.82C91.3549 76.02 91.0883 76.14 90.7283 76.18L90.2883 76.22C89.4749 76.3 88.8616 76.5533 88.4483 76.98C88.0349 77.3933 87.8283 77.98 87.8283 78.74V82.88C87.8283 83.2933 87.7216 83.6133 87.5083 83.84C87.2949 84.0533 86.9816 84.16 86.5683 84.16ZM104.19 84.2C103.363 84.2 102.637 83.9933 102.01 83.58C101.397 83.1667 100.99 82.6133 100.79 81.92L101.01 81.42V82.88C101.01 83.2933 100.903 83.6133 100.69 83.84C100.477 84.0533 100.177 84.16 99.79 84.16C99.39 84.16 99.0833 84.0533 98.87 83.84C98.6567 83.6133 98.55 83.2933 98.55 82.88V71C98.55 70.5867 98.6567 70.2733 98.87 70.06C99.0833 69.8467 99.39 69.74 99.79 69.74C100.19 69.74 100.497 69.8467 100.71 70.06C100.937 70.2733 101.05 70.5867 101.05 71V76.2H100.81C101.023 75.5467 101.437 75.02 102.05 74.62C102.663 74.22 103.377 74.02 104.19 74.02C105.057 74.02 105.81 74.2267 106.45 74.64C107.09 75.0533 107.59 75.64 107.95 76.4C108.31 77.1467 108.49 78.0467 108.49 79.1C108.49 80.14 108.31 81.0467 107.95 81.82C107.59 82.58 107.083 83.1667 106.43 83.58C105.79 83.9933 105.043 84.2 104.19 84.2ZM103.49 82.3C103.983 82.3 104.417 82.18 104.79 81.94C105.163 81.7 105.45 81.3467 105.65 80.88C105.863 80.4 105.97 79.8067 105.97 79.1C105.97 78.0333 105.743 77.24 105.29 76.72C104.837 76.1867 104.237 75.92 103.49 75.92C102.997 75.92 102.563 76.04 102.19 76.28C101.817 76.5067 101.523 76.86 101.31 77.34C101.11 77.8067 101.01 78.3933 101.01 79.1C101.01 80.1533 101.237 80.9533 101.69 81.5C102.143 82.0333 102.743 82.3 103.49 82.3ZM113.762 84.2C113.056 84.2 112.422 84.0667 111.862 83.8C111.316 83.52 110.882 83.1467 110.562 82.68C110.256 82.2133 110.102 81.6867 110.102 81.1C110.102 80.38 110.289 79.8133 110.662 79.4C111.036 78.9733 111.642 78.6667 112.482 78.48C113.322 78.2933 114.449 78.2 115.862 78.2H116.862V79.64H115.882C115.056 79.64 114.396 79.68 113.902 79.76C113.409 79.84 113.056 79.98 112.842 80.18C112.642 80.3667 112.542 80.6333 112.542 80.98C112.542 81.42 112.696 81.78 113.002 82.06C113.309 82.34 113.736 82.48 114.282 82.48C114.722 82.48 115.109 82.38 115.442 82.18C115.789 81.9667 116.062 81.68 116.262 81.32C116.462 80.96 116.562 80.5467 116.562 80.08V77.78C116.562 77.1133 116.416 76.6333 116.122 76.34C115.829 76.0467 115.336 75.9 114.642 75.9C114.256 75.9 113.836 75.9467 113.382 76.04C112.942 76.1333 112.476 76.2933 111.982 76.52C111.729 76.64 111.502 76.6733 111.302 76.62C111.116 76.5667 110.969 76.46 110.862 76.3C110.756 76.1267 110.702 75.94 110.702 75.74C110.702 75.54 110.756 75.3467 110.862 75.16C110.969 74.96 111.149 74.8133 111.402 74.72C112.016 74.4667 112.602 74.2867 113.162 74.18C113.736 74.0733 114.256 74.02 114.722 74.02C115.682 74.02 116.469 74.1667 117.082 74.46C117.709 74.7533 118.176 75.2 118.482 75.8C118.789 76.3867 118.942 77.1467 118.942 78.08V82.88C118.942 83.2933 118.842 83.6133 118.642 83.84C118.442 84.0533 118.156 84.16 117.782 84.16C117.409 84.16 117.116 84.0533 116.902 83.84C116.702 83.6133 116.602 83.2933 116.602 82.88V81.92H116.762C116.669 82.3867 116.482 82.7933 116.202 83.14C115.936 83.4733 115.596 83.7333 115.182 83.92C114.769 84.1067 114.296 84.2 113.762 84.2ZM122.76 84.16C122.346 84.16 122.026 84.0533 121.8 83.84C121.586 83.6133 121.48 83.2933 121.48 82.88V75.32C121.48 74.9067 121.586 74.5933 121.8 74.38C122.013 74.1667 122.313 74.06 122.7 74.06C123.086 74.06 123.386 74.1667 123.6 74.38C123.813 74.5933 123.92 74.9067 123.92 75.32V76.58H123.72C123.906 75.78 124.273 75.1733 124.82 74.76C125.366 74.3467 126.093 74.1 127 74.02C127.28 73.9933 127.5 74.0667 127.66 74.24C127.833 74.4 127.933 74.6533 127.96 75C127.986 75.3333 127.906 75.6067 127.72 75.82C127.546 76.02 127.28 76.14 126.92 76.18L126.48 76.22C125.666 76.3 125.053 76.5533 124.64 76.98C124.226 77.3933 124.02 77.98 124.02 78.74V82.88C124.02 83.2933 123.913 83.6133 123.7 83.84C123.486 84.0533 123.173 84.16 122.76 84.16ZM134.952 84.2C134.125 84.2 133.398 83.9933 132.772 83.58C132.158 83.1667 131.752 82.6133 131.552 81.92L131.772 81.42V82.88C131.772 83.2933 131.665 83.6133 131.452 83.84C131.238 84.0533 130.938 84.16 130.552 84.16C130.152 84.16 129.845 84.0533 129.632 83.84C129.418 83.6133 129.312 83.2933 129.312 82.88V71C129.312 70.5867 129.418 70.2733 129.632 70.06C129.845 69.8467 130.152 69.74 130.552 69.74C130.952 69.74 131.258 69.8467 131.472 70.06C131.698 70.2733 131.812 70.5867 131.812 71V76.2H131.572C131.785 75.5467 132.198 75.02 132.812 74.62C133.425 74.22 134.138 74.02 134.952 74.02C135.818 74.02 136.572 74.2267 137.212 74.64C137.852 75.0533 138.352 75.64 138.712 76.4C139.072 77.1467 139.252 78.0467 139.252 79.1C139.252 80.14 139.072 81.0467 138.712 81.82C138.352 82.58 137.845 83.1667 137.192 83.58C136.552 83.9933 135.805 84.2 134.952 84.2ZM134.252 82.3C134.745 82.3 135.178 82.18 135.552 81.94C135.925 81.7 136.212 81.3467 136.412 80.88C136.625 80.4 136.732 79.8067 136.732 79.1C136.732 78.0333 136.505 77.24 136.052 76.72C135.598 76.1867 134.998 75.92 134.252 75.92C133.758 75.92 133.325 76.04 132.952 76.28C132.578 76.5067 132.285 76.86 132.072 77.34C131.872 77.8067 131.772 78.3933 131.772 79.1C131.772 80.1533 131.998 80.9533 132.452 81.5C132.905 82.0333 133.505 82.3 134.252 82.3ZM146.124 84.2C145.017 84.2 144.064 83.9933 143.264 83.58C142.464 83.1667 141.844 82.58 141.404 81.82C140.977 81.06 140.764 80.16 140.764 79.12C140.764 78.1067 140.971 77.22 141.384 76.46C141.811 75.7 142.391 75.1067 143.124 74.68C143.871 74.24 144.717 74.02 145.664 74.02C146.357 74.02 146.977 74.1333 147.524 74.36C148.084 74.5867 148.557 74.9133 148.944 75.34C149.344 75.7667 149.644 76.2867 149.844 76.9C150.057 77.5 150.164 78.18 150.164 78.94C150.164 79.18 150.077 79.3667 149.904 79.5C149.744 79.62 149.511 79.68 149.204 79.68H142.784V78.24H148.404L148.084 78.54C148.084 77.9267 147.991 77.4133 147.804 77C147.631 76.5867 147.371 76.2733 147.024 76.06C146.691 75.8333 146.271 75.72 145.764 75.72C145.204 75.72 144.724 75.8533 144.324 76.12C143.937 76.3733 143.637 76.74 143.424 77.22C143.224 77.6867 143.124 78.2467 143.124 78.9V79.04C143.124 80.1333 143.377 80.9533 143.884 81.5C144.404 82.0333 145.164 82.3 146.164 82.3C146.511 82.3 146.897 82.26 147.324 82.18C147.764 82.0867 148.177 81.9333 148.564 81.72C148.844 81.56 149.091 81.4933 149.304 81.52C149.517 81.5333 149.684 81.6067 149.804 81.74C149.937 81.8733 150.017 82.04 150.044 82.24C150.071 82.4267 150.031 82.62 149.924 82.82C149.831 83.02 149.664 83.1933 149.424 83.34C148.957 83.6333 148.417 83.8533 147.804 84C147.204 84.1333 146.644 84.2 146.124 84.2ZM155.364 84.2C154.657 84.2 154.024 84.0667 153.464 83.8C152.917 83.52 152.484 83.1467 152.164 82.68C151.857 82.2133 151.704 81.6867 151.704 81.1C151.704 80.38 151.89 79.8133 152.264 79.4C152.637 78.9733 153.244 78.6667 154.084 78.48C154.924 78.2933 156.05 78.2 157.464 78.2H158.464V79.64H157.484C156.657 79.64 155.997 79.68 155.504 79.76C155.01 79.84 154.657 79.98 154.444 80.18C154.244 80.3667 154.144 80.6333 154.144 80.98C154.144 81.42 154.297 81.78 154.604 82.06C154.91 82.34 155.337 82.48 155.884 82.48C156.324 82.48 156.71 82.38 157.044 82.18C157.39 81.9667 157.664 81.68 157.864 81.32C158.064 80.96 158.164 80.5467 158.164 80.08V77.78C158.164 77.1133 158.017 76.6333 157.724 76.34C157.43 76.0467 156.937 75.9 156.244 75.9C155.857 75.9 155.437 75.9467 154.984 76.04C154.544 76.1333 154.077 76.2933 153.584 76.52C153.33 76.64 153.104 76.6733 152.904 76.62C152.717 76.5667 152.57 76.46 152.464 76.3C152.357 76.1267 152.304 75.94 152.304 75.74C152.304 75.54 152.357 75.3467 152.464 75.16C152.57 74.96 152.75 74.8133 153.004 74.72C153.617 74.4667 154.204 74.2867 154.764 74.18C155.337 74.0733 155.857 74.02 156.324 74.02C157.284 74.02 158.07 74.1667 158.684 74.46C159.31 74.7533 159.777 75.2 160.084 75.8C160.39 76.3867 160.544 77.1467 160.544 78.08V82.88C160.544 83.2933 160.444 83.6133 160.244 83.84C160.044 84.0533 159.757 84.16 159.384 84.16C159.01 84.16 158.717 84.0533 158.504 83.84C158.304 83.6133 158.204 83.2933 158.204 82.88V81.92H158.364C158.27 82.3867 158.084 82.7933 157.804 83.14C157.537 83.4733 157.197 83.7333 156.784 83.92C156.37 84.1067 155.897 84.2 155.364 84.2ZM164.361 84.16C163.948 84.16 163.628 84.0533 163.401 83.84C163.188 83.6133 163.081 83.2933 163.081 82.88V75.32C163.081 74.9067 163.188 74.5933 163.401 74.38C163.615 74.1667 163.915 74.06 164.301 74.06C164.688 74.06 164.988 74.1667 165.201 74.38C165.415 74.5933 165.521 74.9067 165.521 75.32V76.58H165.321C165.508 75.78 165.875 75.1733 166.421 74.76C166.968 74.3467 167.695 74.1 168.601 74.02C168.881 73.9933 169.101 74.0667 169.261 74.24C169.435 74.4 169.535 74.6533 169.561 75C169.588 75.3333 169.508 75.6067 169.321 75.82C169.148 76.02 168.881 76.14 168.521 76.18L168.081 76.22C167.268 76.3 166.655 76.5533 166.241 76.98C165.828 77.3933 165.621 77.98 165.621 78.74V82.88C165.621 83.2933 165.515 83.6133 165.301 83.84C165.088 84.0533 164.775 84.16 164.361 84.16ZM172.153 84.14C171.753 84.14 171.447 84.02 171.233 83.78C171.02 83.54 170.913 83.2067 170.913 82.78V75.44C170.913 75 171.02 74.6667 171.233 74.44C171.447 74.2 171.753 74.08 172.153 74.08C172.553 74.08 172.86 74.2 173.073 74.44C173.3 74.6667 173.413 75 173.413 75.44V82.78C173.413 83.2067 173.307 83.54 173.093 83.78C172.88 84.02 172.567 84.14 172.153 84.14ZM172.153 72.22C171.687 72.22 171.32 72.1067 171.053 71.88C170.8 71.64 170.673 71.3133 170.673 70.9C170.673 70.4733 170.8 70.1467 171.053 69.92C171.32 69.6933 171.687 69.58 172.153 69.58C172.633 69.58 173 69.6933 173.253 69.92C173.507 70.1467 173.633 70.4733 173.633 70.9C173.633 71.3133 173.507 71.64 173.253 71.88C173 72.1067 172.633 72.22 172.153 72.22ZM179.231 84.2C178.524 84.2 177.891 84.0667 177.331 83.8C176.784 83.52 176.351 83.1467 176.031 82.68C175.724 82.2133 175.571 81.6867 175.571 81.1C175.571 80.38 175.758 79.8133 176.131 79.4C176.504 78.9733 177.111 78.6667 177.951 78.48C178.791 78.2933 179.918 78.2 181.331 78.2H182.331V79.64H181.351C180.524 79.64 179.864 79.68 179.371 79.76C178.878 79.84 178.524 79.98 178.311 80.18C178.111 80.3667 178.011 80.6333 178.011 80.98C178.011 81.42 178.164 81.78 178.471 82.06C178.778 82.34 179.204 82.48 179.751 82.48C180.191 82.48 180.578 82.38 180.911 82.18C181.258 81.9667 181.531 81.68 181.731 81.32C181.931 80.96 182.031 80.5467 182.031 80.08V77.78C182.031 77.1133 181.884 76.6333 181.591 76.34C181.298 76.0467 180.804 75.9 180.111 75.9C179.724 75.9 179.304 75.9467 178.851 76.04C178.411 76.1333 177.944 76.2933 177.451 76.52C177.198 76.64 176.971 76.6733 176.771 76.62C176.584 76.5667 176.438 76.46 176.331 76.3C176.224 76.1267 176.171 75.94 176.171 75.74C176.171 75.54 176.224 75.3467 176.331 75.16C176.438 74.96 176.618 74.8133 176.871 74.72C177.484 74.4667 178.071 74.2867 178.631 74.18C179.204 74.0733 179.724 74.02 180.191 74.02C181.151 74.02 181.938 74.1667 182.551 74.46C183.178 74.7533 183.644 75.2 183.951 75.8C184.258 76.3867 184.411 77.1467 184.411 78.08V82.88C184.411 83.2933 184.311 83.6133 184.111 83.84C183.911 84.0533 183.624 84.16 183.251 84.16C182.878 84.16 182.584 84.0533 182.371 83.84C182.171 83.6133 182.071 83.2933 182.071 82.88V81.92H182.231C182.138 82.3867 181.951 82.7933 181.671 83.14C181.404 83.4733 181.064 83.7333 180.651 83.92C180.238 84.1067 179.764 84.2 179.231 84.2Z" fill="white"/>
<path d="M29.892 103.112C29.2293 103.112 28.66 102.967 28.184 102.678C27.708 102.379 27.3393 101.964 27.078 101.432C26.826 100.891 26.7 100.265 26.7 99.556C26.7 99.0147 26.77 98.534 26.91 98.114C27.0593 97.6847 27.2693 97.3207 27.54 97.022C27.82 96.7233 28.156 96.4947 28.548 96.336C28.9493 96.168 29.3973 96.084 29.892 96.084C30.2373 96.084 30.592 96.1447 30.956 96.266C31.32 96.378 31.6513 96.5693 31.95 96.84C32.0153 96.896 32.0573 96.9613 32.076 97.036C32.0947 97.1107 32.09 97.1853 32.062 97.26C32.034 97.3253 31.992 97.3813 31.936 97.428C31.88 97.4653 31.81 97.4887 31.726 97.498C31.6513 97.498 31.572 97.4607 31.488 97.386C31.2267 97.1713 30.9607 97.0267 30.69 96.952C30.4287 96.868 30.172 96.826 29.92 96.826C29.5373 96.826 29.2013 96.8867 28.912 97.008C28.6227 97.1293 28.3753 97.3067 28.17 97.54C27.974 97.7733 27.8247 98.0627 27.722 98.408C27.6193 98.744 27.568 99.1313 27.568 99.57C27.568 100.447 27.7687 101.138 28.17 101.642C28.5807 102.137 29.164 102.384 29.92 102.384C30.172 102.384 30.4287 102.347 30.69 102.272C30.9607 102.188 31.2267 102.039 31.488 101.824C31.572 101.749 31.6513 101.717 31.726 101.726C31.81 101.726 31.88 101.749 31.936 101.796C31.992 101.833 32.0293 101.889 32.048 101.964C32.076 102.029 32.0807 102.099 32.062 102.174C32.0433 102.249 32.0013 102.314 31.936 102.37C31.6467 102.641 31.32 102.832 30.956 102.944C30.592 103.056 30.2373 103.112 29.892 103.112ZM36.1111 103.112C35.4764 103.112 34.9257 102.967 34.4591 102.678C33.9924 102.389 33.6284 101.983 33.3671 101.46C33.1151 100.937 32.9891 100.317 32.9891 99.598C32.9891 99.066 33.0591 98.5853 33.1991 98.156C33.3484 97.7267 33.5584 97.358 33.8291 97.05C34.1091 96.7327 34.4404 96.4947 34.8231 96.336C35.2151 96.168 35.6444 96.084 36.1111 96.084C36.7551 96.084 37.3104 96.2287 37.7771 96.518C38.2437 96.8073 38.6031 97.218 38.8551 97.75C39.1164 98.2727 39.2471 98.8887 39.2471 99.598C39.2471 100.139 39.1724 100.625 39.0231 101.054C38.8831 101.483 38.6731 101.852 38.3931 102.16C38.1224 102.468 37.7957 102.706 37.4131 102.874C37.0304 103.033 36.5964 103.112 36.1111 103.112ZM36.1111 102.398C36.5777 102.398 36.9791 102.291 37.3151 102.076C37.6604 101.852 37.9217 101.53 38.0991 101.11C38.2857 100.69 38.3791 100.186 38.3791 99.598C38.3791 98.7113 38.1737 98.0253 37.7631 97.54C37.3617 97.0547 36.8111 96.812 36.1111 96.812C35.6537 96.812 35.2524 96.924 34.9071 97.148C34.5711 97.3627 34.3097 97.68 34.1231 98.1C33.9457 98.5107 33.8571 99.01 33.8571 99.598C33.8571 100.494 34.0624 101.185 34.4731 101.67C34.8837 102.155 35.4297 102.398 36.1111 102.398ZM41.5273 103.084C41.3873 103.084 41.28 103.047 41.2053 102.972C41.1306 102.897 41.0933 102.79 41.0933 102.65V96.56C41.0933 96.4107 41.1306 96.2987 41.2053 96.224C41.28 96.1493 41.3873 96.112 41.5273 96.112C41.658 96.112 41.756 96.1493 41.8213 96.224C41.896 96.2987 41.9333 96.4107 41.9333 96.56V97.89L41.7793 97.792C41.9473 97.2413 42.232 96.8213 42.6333 96.532C43.0346 96.2333 43.5153 96.084 44.0753 96.084C44.6726 96.084 45.1486 96.2287 45.5033 96.518C45.8673 96.8073 46.1053 97.2413 46.2173 97.82H46.0073C46.166 97.2973 46.46 96.8773 46.8893 96.56C47.328 96.2427 47.8413 96.084 48.4293 96.084C48.9333 96.084 49.3486 96.182 49.6753 96.378C50.0113 96.574 50.2633 96.868 50.4313 97.26C50.5993 97.6427 50.6833 98.128 50.6833 98.716V102.65C50.6833 102.79 50.646 102.897 50.5713 102.972C50.4966 103.047 50.3893 103.084 50.2493 103.084C50.1186 103.084 50.016 103.047 49.9413 102.972C49.8666 102.897 49.8293 102.79 49.8293 102.65V98.786C49.8293 98.1047 49.708 97.61 49.4653 97.302C49.232 96.9847 48.8353 96.826 48.2753 96.826C47.678 96.826 47.202 97.036 46.8473 97.456C46.4926 97.8667 46.3153 98.4267 46.3153 99.136V102.65C46.3153 102.79 46.278 102.897 46.2033 102.972C46.1286 103.047 46.026 103.084 45.8953 103.084C45.7553 103.084 45.648 103.047 45.5733 102.972C45.4986 102.897 45.4613 102.79 45.4613 102.65V98.786C45.4613 98.1047 45.34 97.61 45.0973 97.302C44.864 96.9847 44.472 96.826 43.9213 96.826C43.3146 96.826 42.834 97.036 42.4793 97.456C42.1246 97.8667 41.9473 98.4267 41.9473 99.136V102.65C41.9473 102.939 41.8073 103.084 41.5273 103.084ZM60.9962 103.112C59.9602 103.112 59.0875 102.916 58.3782 102.524C57.6688 102.123 57.1322 101.544 56.7682 100.788C56.4042 100.032 56.2222 99.122 56.2222 98.058C56.2222 97.274 56.3248 96.574 56.5302 95.958C56.7355 95.3327 57.0295 94.8053 57.4122 94.376C57.8042 93.9373 58.2802 93.6013 58.8402 93.368C59.4095 93.1347 60.0535 93.018 60.7722 93.018C61.3975 93.018 61.9902 93.1067 62.5502 93.284C63.1102 93.4613 63.5955 93.7413 64.0062 94.124C64.0902 94.1987 64.1415 94.278 64.1602 94.362C64.1788 94.4367 64.1742 94.516 64.1462 94.6C64.1182 94.6747 64.0715 94.74 64.0062 94.796C63.9502 94.8427 63.8802 94.8707 63.7962 94.88C63.7215 94.88 63.6375 94.8473 63.5442 94.782C63.1615 94.4367 62.7368 94.1893 62.2702 94.04C61.8128 93.8907 61.3088 93.816 60.7582 93.816C59.9835 93.816 59.3255 93.984 58.7842 94.32C58.2428 94.6467 57.8322 95.1273 57.5522 95.762C57.2722 96.3967 57.1322 97.162 57.1322 98.058C57.1322 99.4487 57.4542 100.508 58.0982 101.236C58.7422 101.964 59.7128 102.328 61.0102 102.328C61.4955 102.328 61.9622 102.281 62.4102 102.188C62.8582 102.095 63.2782 101.964 63.6702 101.796L63.4602 102.384V98.674H61.2482C61.1175 98.674 61.0148 98.6413 60.9402 98.576C60.8748 98.5013 60.8422 98.408 60.8422 98.296C60.8422 98.184 60.8748 98.1 60.9402 98.044C61.0148 97.9787 61.1175 97.946 61.2482 97.946H63.8382C63.9688 97.946 64.0668 97.9833 64.1322 98.058C64.1975 98.1233 64.2302 98.2167 64.2302 98.338V102.104C64.2302 102.216 64.2115 102.309 64.1742 102.384C64.1462 102.459 64.0902 102.515 64.0062 102.552C63.6328 102.711 63.1662 102.846 62.6062 102.958C62.0555 103.061 61.5188 103.112 60.9962 103.112ZM67.1937 103C67.0444 103 66.9277 102.958 66.8437 102.874C66.7597 102.79 66.7177 102.669 66.7177 102.51V93.62C66.7177 93.4613 66.7597 93.34 66.8437 93.256C66.9277 93.172 67.0444 93.13 67.1937 93.13H70.4837C71.165 93.13 71.739 93.2327 72.2057 93.438C72.6724 93.634 73.0317 93.9233 73.2837 94.306C73.5357 94.6887 73.6617 95.16 73.6617 95.72C73.6617 96.336 73.475 96.8493 73.1017 97.26C72.7377 97.6707 72.243 97.9413 71.6177 98.072V97.876C72.3177 97.9507 72.8684 98.2027 73.2697 98.632C73.6804 99.052 73.8857 99.612 73.8857 100.312C73.8857 101.189 73.6057 101.857 73.0457 102.314C72.4857 102.771 71.6924 103 70.6657 103H67.1937ZM67.5577 102.272H70.5957C71.4077 102.272 72.0144 102.113 72.4157 101.796C72.817 101.469 73.0177 100.979 73.0177 100.326C73.0177 99.654 72.817 99.1593 72.4157 98.842C72.0144 98.5247 71.4077 98.366 70.5957 98.366H67.5577V102.272ZM67.5577 97.638H70.3857C71.1697 97.638 71.767 97.4793 72.1777 97.162C72.5884 96.8353 72.7937 96.364 72.7937 95.748C72.7937 95.132 72.5884 94.6653 72.1777 94.348C71.767 94.0213 71.1697 93.858 70.3857 93.858H67.5577V97.638ZM80.1136 103C79.9643 103 79.8476 102.958 79.7636 102.874C79.6796 102.79 79.6376 102.669 79.6376 102.51V93.62C79.6376 93.4613 79.6796 93.34 79.7636 93.256C79.8476 93.172 79.9643 93.13 80.1136 93.13H83.4036C84.0849 93.13 84.6589 93.2327 85.1256 93.438C85.5923 93.634 85.9516 93.9233 86.2036 94.306C86.4556 94.6887 86.5816 95.16 86.5816 95.72C86.5816 96.336 86.3949 96.8493 86.0216 97.26C85.6576 97.6707 85.1629 97.9413 84.5376 98.072V97.876C85.2376 97.9507 85.7883 98.2027 86.1896 98.632C86.6003 99.052 86.8056 99.612 86.8056 100.312C86.8056 101.189 86.5256 101.857 85.9656 102.314C85.4056 102.771 84.6123 103 83.5856 103H80.1136ZM80.4776 102.272H83.5156C84.3276 102.272 84.9343 102.113 85.3356 101.796C85.7369 101.469 85.9376 100.979 85.9376 100.326C85.9376 99.654 85.7369 99.1593 85.3356 98.842C84.9343 98.5247 84.3276 98.366 83.5156 98.366H80.4776V102.272ZM80.4776 97.638H83.3056C84.0896 97.638 84.6869 97.4793 85.0976 97.162C85.5083 96.8353 85.7136 96.364 85.7136 95.748C85.7136 95.132 85.5083 94.6653 85.0976 94.348C84.6869 94.0213 84.0896 93.858 83.3056 93.858H80.4776V97.638ZM90.9622 103.112C90.5049 103.112 90.0942 103.023 89.7302 102.846C89.3755 102.669 89.0909 102.426 88.8762 102.118C88.6709 101.81 88.5682 101.465 88.5682 101.082C88.5682 100.578 88.6942 100.181 88.9462 99.892C89.1982 99.6027 89.6229 99.402 90.2202 99.29C90.8175 99.1687 91.6389 99.108 92.6842 99.108H93.2862V99.738H92.6982C91.8582 99.738 91.2002 99.7753 90.7242 99.85C90.2575 99.9153 89.9309 100.041 89.7442 100.228C89.5575 100.415 89.4642 100.676 89.4642 101.012C89.4642 101.432 89.6089 101.773 89.8982 102.034C90.1875 102.295 90.5795 102.426 91.0742 102.426C91.4755 102.426 91.8255 102.333 92.1242 102.146C92.4322 101.95 92.6749 101.684 92.8522 101.348C93.0295 101.012 93.1182 100.629 93.1182 100.2V98.604C93.1182 97.9787 92.9922 97.526 92.7402 97.246C92.4882 96.9567 92.0869 96.812 91.5362 96.812C91.1815 96.812 90.8362 96.8587 90.5002 96.952C90.1735 97.0453 89.8235 97.1947 89.4502 97.4C89.3475 97.456 89.2542 97.4747 89.1702 97.456C89.0955 97.4373 89.0349 97.4 88.9882 97.344C88.9509 97.288 88.9229 97.2227 88.9042 97.148C88.8949 97.064 88.9089 96.9847 88.9462 96.91C88.9835 96.8353 89.0489 96.7747 89.1422 96.728C89.5342 96.5133 89.9309 96.3547 90.3322 96.252C90.7429 96.14 91.1395 96.084 91.5222 96.084C92.0729 96.084 92.5255 96.1773 92.8802 96.364C93.2442 96.5507 93.5102 96.8307 93.6782 97.204C93.8555 97.5773 93.9442 98.058 93.9442 98.646V102.65C93.9442 102.79 93.9115 102.897 93.8462 102.972C93.7809 103.047 93.6829 103.084 93.5522 103.084C93.4215 103.084 93.3189 103.047 93.2442 102.972C93.1695 102.897 93.1322 102.79 93.1322 102.65V101.362H93.2722C93.1882 101.726 93.0389 102.039 92.8242 102.3C92.6095 102.561 92.3435 102.762 92.0262 102.902C91.7089 103.042 91.3542 103.112 90.9622 103.112ZM96.6106 103.084C96.4706 103.084 96.3633 103.047 96.2886 102.972C96.214 102.897 96.1766 102.79 96.1766 102.65V96.56C96.1766 96.4107 96.214 96.2987 96.2886 96.224C96.3633 96.1493 96.4706 96.112 96.6106 96.112C96.7413 96.112 96.8393 96.1493 96.9046 96.224C96.9793 96.2987 97.0166 96.4107 97.0166 96.56V97.806H96.8766C97.0446 97.2553 97.3433 96.8307 97.7726 96.532C98.2113 96.2333 98.734 96.0793 99.3406 96.07C99.4526 96.0607 99.546 96.084 99.6206 96.14C99.6953 96.196 99.7326 96.2847 99.7326 96.406C99.742 96.5367 99.714 96.6393 99.6486 96.714C99.5833 96.7793 99.476 96.8213 99.3266 96.84L99.1306 96.854C98.468 96.9193 97.9546 97.1387 97.5906 97.512C97.2266 97.8853 97.0446 98.3893 97.0446 99.024V102.65C97.0446 102.79 97.0073 102.897 96.9326 102.972C96.8673 103.047 96.76 103.084 96.6106 103.084ZM104.196 103.112C103.561 103.112 103.02 102.949 102.572 102.622C102.124 102.295 101.82 101.857 101.662 101.306L101.816 101.222V102.65C101.816 102.79 101.778 102.897 101.704 102.972C101.629 103.047 101.526 103.084 101.396 103.084C101.256 103.084 101.148 103.047 101.074 102.972C100.999 102.897 100.962 102.79 100.962 102.65V93.48C100.962 93.3307 100.999 93.2233 101.074 93.158C101.148 93.0833 101.256 93.046 101.396 93.046C101.526 93.046 101.629 93.0833 101.704 93.158C101.778 93.2233 101.816 93.3307 101.816 93.48V97.89H101.662C101.82 97.3393 102.124 96.9007 102.572 96.574C103.02 96.2473 103.561 96.084 104.196 96.084C104.812 96.084 105.344 96.2287 105.792 96.518C106.24 96.8073 106.585 97.2133 106.828 97.736C107.08 98.2587 107.206 98.8793 107.206 99.598C107.206 100.317 107.08 100.942 106.828 101.474C106.585 101.997 106.235 102.403 105.778 102.692C105.33 102.972 104.802 103.112 104.196 103.112ZM104.07 102.398C104.527 102.398 104.924 102.291 105.26 102.076C105.605 101.852 105.871 101.53 106.058 101.11C106.244 100.69 106.338 100.186 106.338 99.598C106.338 98.7113 106.132 98.0253 105.722 97.54C105.311 97.0547 104.76 96.812 104.07 96.812C103.612 96.812 103.211 96.924 102.866 97.148C102.53 97.3627 102.268 97.68 102.082 98.1C101.895 98.5107 101.802 99.01 101.802 99.598C101.802 100.494 102.007 101.185 102.418 101.67C102.828 102.155 103.379 102.398 104.07 102.398ZM111.969 103.112C111.269 103.112 110.667 102.972 110.163 102.692C109.659 102.412 109.271 102.011 109.001 101.488C108.73 100.965 108.595 100.345 108.595 99.626C108.595 98.9167 108.73 98.3007 109.001 97.778C109.271 97.246 109.645 96.8307 110.121 96.532C110.606 96.2333 111.161 96.084 111.787 96.084C112.244 96.084 112.645 96.1633 112.991 96.322C113.345 96.4713 113.644 96.6907 113.887 96.98C114.139 97.26 114.33 97.6053 114.461 98.016C114.591 98.4173 114.657 98.8747 114.657 99.388C114.657 99.5187 114.619 99.6167 114.545 99.682C114.479 99.7473 114.386 99.78 114.265 99.78H109.211V99.15H114.125L113.901 99.332C113.901 98.7907 113.821 98.3333 113.663 97.96C113.504 97.5773 113.266 97.2833 112.949 97.078C112.641 96.8727 112.258 96.77 111.801 96.77C111.287 96.77 110.853 96.8913 110.499 97.134C110.144 97.3673 109.878 97.694 109.701 98.114C109.523 98.5247 109.435 99.0007 109.435 99.542V99.612C109.435 100.508 109.654 101.199 110.093 101.684C110.531 102.16 111.147 102.398 111.941 102.398C112.286 102.398 112.617 102.351 112.935 102.258C113.261 102.165 113.579 102.006 113.887 101.782C113.98 101.717 114.069 101.684 114.153 101.684C114.246 101.684 114.321 101.707 114.377 101.754C114.442 101.801 114.484 101.861 114.503 101.936C114.531 102.001 114.526 102.076 114.489 102.16C114.461 102.235 114.4 102.305 114.307 102.37C114.008 102.613 113.649 102.799 113.229 102.93C112.809 103.051 112.389 103.112 111.969 103.112ZM118.497 103.112C118.04 103.112 117.629 103.023 117.265 102.846C116.911 102.669 116.626 102.426 116.411 102.118C116.206 101.81 116.103 101.465 116.103 101.082C116.103 100.578 116.229 100.181 116.481 99.892C116.733 99.6027 117.158 99.402 117.755 99.29C118.353 99.1687 119.174 99.108 120.219 99.108H120.821V99.738H120.233C119.393 99.738 118.735 99.7753 118.259 99.85C117.793 99.9153 117.466 100.041 117.279 100.228C117.093 100.415 116.999 100.676 116.999 101.012C116.999 101.432 117.144 101.773 117.433 102.034C117.723 102.295 118.115 102.426 118.609 102.426C119.011 102.426 119.361 102.333 119.659 102.146C119.967 101.95 120.21 101.684 120.387 101.348C120.565 101.012 120.653 100.629 120.653 100.2V98.604C120.653 97.9787 120.527 97.526 120.275 97.246C120.023 96.9567 119.622 96.812 119.071 96.812C118.717 96.812 118.371 96.8587 118.035 96.952C117.709 97.0453 117.359 97.1947 116.985 97.4C116.883 97.456 116.789 97.4747 116.705 97.456C116.631 97.4373 116.57 97.4 116.523 97.344C116.486 97.288 116.458 97.2227 116.439 97.148C116.43 97.064 116.444 96.9847 116.481 96.91C116.519 96.8353 116.584 96.7747 116.677 96.728C117.069 96.5133 117.466 96.3547 117.867 96.252C118.278 96.14 118.675 96.084 119.057 96.084C119.608 96.084 120.061 96.1773 120.415 96.364C120.779 96.5507 121.045 96.8307 121.213 97.204C121.391 97.5773 121.479 98.058 121.479 98.646V102.65C121.479 102.79 121.447 102.897 121.381 102.972C121.316 103.047 121.218 103.084 121.087 103.084C120.957 103.084 120.854 103.047 120.779 102.972C120.705 102.897 120.667 102.79 120.667 102.65V101.362H120.807C120.723 101.726 120.574 102.039 120.359 102.3C120.145 102.561 119.879 102.762 119.561 102.902C119.244 103.042 118.889 103.112 118.497 103.112ZM124.146 103.084C124.006 103.084 123.898 103.047 123.824 102.972C123.749 102.897 123.712 102.79 123.712 102.65V96.56C123.712 96.4107 123.749 96.2987 123.824 96.224C123.898 96.1493 124.006 96.112 124.146 96.112C124.276 96.112 124.374 96.1493 124.44 96.224C124.514 96.2987 124.552 96.4107 124.552 96.56V97.806H124.412C124.58 97.2553 124.878 96.8307 125.308 96.532C125.746 96.2333 126.269 96.0793 126.876 96.07C126.988 96.0607 127.081 96.084 127.156 96.14C127.23 96.196 127.268 96.2847 127.268 96.406C127.277 96.5367 127.249 96.6393 127.184 96.714C127.118 96.7793 127.011 96.8213 126.862 96.84L126.666 96.854C126.003 96.9193 125.49 97.1387 125.126 97.512C124.762 97.8853 124.58 98.3893 124.58 99.024V102.65C124.58 102.79 124.542 102.897 124.468 102.972C124.402 103.047 124.295 103.084 124.146 103.084ZM128.931 103.056C128.791 103.056 128.684 103.014 128.609 102.93C128.534 102.846 128.497 102.734 128.497 102.594V96.602C128.497 96.4527 128.534 96.3407 128.609 96.266C128.684 96.1913 128.791 96.154 128.931 96.154C129.062 96.154 129.164 96.1913 129.239 96.266C129.314 96.3407 129.351 96.4527 129.351 96.602V102.594C129.351 102.734 129.314 102.846 129.239 102.93C129.174 103.014 129.071 103.056 128.931 103.056ZM128.931 94.46C128.735 94.46 128.581 94.4087 128.469 94.306C128.366 94.2033 128.315 94.0587 128.315 93.872C128.315 93.6853 128.366 93.5453 128.469 93.452C128.581 93.3493 128.735 93.298 128.931 93.298C129.127 93.298 129.276 93.3493 129.379 93.452C129.491 93.5453 129.547 93.6853 129.547 93.872C129.547 94.0587 129.491 94.2033 129.379 94.306C129.276 94.4087 129.127 94.46 128.931 94.46ZM133.7 103.112C133.243 103.112 132.832 103.023 132.468 102.846C132.114 102.669 131.829 102.426 131.614 102.118C131.409 101.81 131.306 101.465 131.306 101.082C131.306 100.578 131.432 100.181 131.684 99.892C131.936 99.6027 132.361 99.402 132.958 99.29C133.556 99.1687 134.377 99.108 135.422 99.108H136.024V99.738H135.436C134.596 99.738 133.938 99.7753 133.462 99.85C132.996 99.9153 132.669 100.041 132.482 100.228C132.296 100.415 132.202 100.676 132.202 101.012C132.202 101.432 132.347 101.773 132.636 102.034C132.926 102.295 133.318 102.426 133.812 102.426C134.214 102.426 134.564 102.333 134.862 102.146C135.17 101.95 135.413 101.684 135.59 101.348C135.768 101.012 135.856 100.629 135.856 100.2V98.604C135.856 97.9787 135.73 97.526 135.478 97.246C135.226 96.9567 134.825 96.812 134.274 96.812C133.92 96.812 133.574 96.8587 133.238 96.952C132.912 97.0453 132.562 97.1947 132.188 97.4C132.086 97.456 131.992 97.4747 131.908 97.456C131.834 97.4373 131.773 97.4 131.726 97.344C131.689 97.288 131.661 97.2227 131.642 97.148C131.633 97.064 131.647 96.9847 131.684 96.91C131.722 96.8353 131.787 96.7747 131.88 96.728C132.272 96.5133 132.669 96.3547 133.07 96.252C133.481 96.14 133.878 96.084 134.26 96.084C134.811 96.084 135.264 96.1773 135.618 96.364C135.982 96.5507 136.248 96.8307 136.416 97.204C136.594 97.5773 136.682 98.058 136.682 98.646V102.65C136.682 102.79 136.65 102.897 136.584 102.972C136.519 103.047 136.421 103.084 136.29 103.084C136.16 103.084 136.057 103.047 135.982 102.972C135.908 102.897 135.87 102.79 135.87 102.65V101.362H136.01C135.926 101.726 135.777 102.039 135.562 102.3C135.348 102.561 135.082 102.762 134.764 102.902C134.447 103.042 134.092 103.112 133.7 103.112Z" fill="white"/>
</g>
<defs>
<linearGradient id="paint0_linear_1003_4" x1="1.87352e-06" y1="3" x2="225" y2="150" gradientUnits="userSpaceOnUse">
<stop stop-color="#102332"/>
<stop offset="1" stop-color="#246596"/>
</linearGradient>
<clipPath id="clip0_1003_4">
<rect width="350" height="150" rx="10" fill="white"/>
</clipPath>
</defs>
</svg>
